<?xml version="1.0" encoding="utf-8"?>
<svg version="1.1" xmlns="http://www.w3.org/2000/svg" xmlns:xlink="http://www.w3.org/1999/xlink" x="0px" y="0px"
	 viewBox="0 0 500 347.2" style="enable-background:new 0 0 500 347.2;" xml:space="preserve">
<g id="Background_Complete">
	<g>
		<g>
			<path fill="#EBEBEB" d="M92.6,180.9l-14.8,0.3l-7.5,0.1c-2.5,0-5,0-7.5,0.1l-0.4,0l0-0.4l-0.1-12.6l0-0.5l0.5,0l14.9,0.1
				c5,0,10,0.1,14.9,0.2l0.3,0l0,0.3c0,2.1-0.1,4.3-0.1,6.4L92.6,180.9z M92.6,180.9l-0.1-6.4c0-2.1-0.1-4.2-0.1-6.3l0.3,0.3
				c-5,0.1-10,0.2-14.9,0.2l-14.9,0.1l0.5-0.5l-0.1,12.6l-0.4-0.4c2.5,0,4.9,0,7.4,0.1l7.4,0.1L92.6,180.9z"/>
		</g>
		<g>
			<path fill="#EBEBEB" d="M76,196.8l-14.8,0.3l-7.5,0.1c-2.5,0-5,0-7.5,0.1l-0.4,0l0-0.4l-0.1-12.6l0-0.5l0.5,0l14.9,0.1
				c5,0,10,0.1,14.9,0.2l0.3,0l0,0.3c0,2.1-0.1,4.3-0.1,6.4L76,196.8z M76,196.8l-0.1-6.4c0-2.1-0.1-4.2-0.1-6.3l0.3,0.3
				c-5,0.1-10,0.2-14.9,0.2l-14.9,0.1l0.5-0.5l-0.1,12.6l-0.4-0.4c2.5,0,4.9,0,7.4,0.1l7.4,0.1L76,196.8z"/>
		</g>
		<g>
			<path fill="#EBEBEB" d="M360.7,87.2l-14.8,0.3l-7.5,0.1c-2.5,0-5,0-7.5,0.1l-0.4,0l0-0.4l-0.1-12.6l0-0.5l0.5,0l14.9,0.1
				c5,0,10,0.1,14.9,0.2l0.3,0l0,0.3c0,2.1-0.1,4.3-0.1,6.4L360.7,87.2z M360.7,87.2l-0.1-6.4c0-2.1-0.1-4.2-0.1-6.3l0.3,0.3
				c-5,0.1-10,0.2-14.9,0.2L330.8,75l0.5-0.5l-0.1,12.6l-0.4-0.4c2.5,0,4.9,0,7.4,0.1l7.4,0.1L360.7,87.2z"/>
		</g>
		<g>
			<path fill="#EBEBEB" d="M344,103.1l-14.8,0.3l-7.5,0.1c-2.5,0-5,0-7.5,0.1l-0.4,0l0-0.4l-0.1-12.6l0-0.5l0.5,0l14.9,0.1
				c5,0,10,0.1,14.9,0.2l0.3,0l0,0.3c0,2.1-0.1,4.3-0.1,6.4L344,103.1z M344,103.1l-0.1-6.4c0-2.1-0.1-4.2-0.1-6.3l0.3,0.3
				c-5,0.1-10,0.2-14.9,0.2L314.1,91l0.5-0.5l-0.1,12.6l-0.4-0.4c2.5,0,4.9,0,7.4,0.1l7.4,0.1L344,103.1z"/>
		</g>
		<g>
			<path fill="#EBEBEB" d="M327.4,87.2l-14.8,0.3l-7.5,0.1c-2.5,0-5,0-7.5,0.1l-0.4,0l0-0.4L297,74.5l0-0.5l0.5,0l14.9,0.1
				c5,0,10,0.1,14.9,0.2l0.3,0l0,0.3c0,2.1-0.1,4.3-0.1,6.4L327.4,87.2z M327.4,87.2l-0.1-6.4c0-2.1-0.1-4.2-0.1-6.3l0.3,0.3
				c-5,0.1-10,0.2-14.9,0.2L297.5,75l0.5-0.5L298,87.2l-0.4-0.4c2.5,0,4.9,0,7.4,0.1l7.4,0.1L327.4,87.2z"/>
		</g>
		<g>
			<path fill="#EBEBEB" d="M453.9,196.8l-14.8,0.3l-7.5,0.1c-2.5,0-5,0-7.5,0.1l-0.4,0l0-0.4l-0.1-12.6l0-0.5l0.5,0l14.9,0.1
				c5,0,10,0.1,14.9,0.2l0.3,0l0,0.3c0,2.1-0.1,4.3-0.1,6.4L453.9,196.8z M453.9,196.8l-0.1-6.4c0-2.1-0.1-4.2-0.1-6.3l0.3,0.3
				c-5,0.1-10,0.2-14.9,0.2l-14.9,0.1l0.5-0.5l-0.1,12.6l-0.4-0.4c2.5,0,4.9,0,7.4,0.1l7.4,0.1L453.9,196.8z"/>
		</g>
	</g>
	<g>
		<path fill="#EBEBEB" d="M423.2,44.7l5.9-9.5l-2.9-1.8c-0.9-0.5-1.3-1.5-1.2-2.5c0-0.6,0.1-1.1,0.1-1.7c0-1,0.5-1.9,1.4-2.4l3-1.6
			l-5.3-9.8l-3,1.6c-0.9,0.5-2,0.4-2.8-0.2c-0.5-0.3-0.9-0.6-1.4-0.9c-0.9-0.5-1.4-1.4-1.4-2.4l0.1-3.4l-11.2-0.3l-0.1,3.4
			c0,1-0.6,1.9-1.6,2.3c-0.2,0.1-0.5,0.2-0.7,0.4c-0.2,0.1-0.5,0.3-0.7,0.4c-0.9,0.5-1.9,0.5-2.8,0l-2.9-1.8l-5.9,9.5l2.9,1.8
			c0.9,0.5,1.3,1.5,1.2,2.5c0,0.6-0.1,1.1-0.1,1.7c0,1-0.5,1.9-1.4,2.4l-3,1.6l5.3,9.8l3-1.6c0.9-0.5,1.9-0.4,2.8,0.2
			c0.5,0.3,0.9,0.6,1.4,0.9c0.9,0.5,1.4,1.4,1.4,2.4l-0.1,3.4l11.2,0.3l0.1-3.4c0-1,0.6-1.9,1.6-2.3c0.2-0.1,0.5-0.2,0.7-0.4
			c0.2-0.1,0.5-0.3,0.7-0.4c0.9-0.5,1.9-0.6,2.8,0L423.2,44.7z M413.8,37.6c-4.5,2.4-10,0.7-12.4-3.7c-2.4-4.5-0.7-10,3.7-12.4
			c4.5-2.4,10-0.7,12.4,3.7C419.9,29.7,418.2,35.3,413.8,37.6z"/>
		<path fill="#EBEBEB" d="M101.5,152.2l5.9-9.5l-2.9-1.8c-0.9-0.5-1.3-1.5-1.2-2.5c0-0.6,0.1-1.1,0.1-1.7c0-1,0.5-1.9,1.4-2.4l3-1.6
			l-5.3-9.8l-3,1.6c-0.9,0.5-2,0.4-2.8-0.2c-0.5-0.3-0.9-0.6-1.4-0.9c-0.9-0.5-1.4-1.4-1.4-2.4l0.1-3.4l-11.2-0.3l-0.1,3.4
			c0,1-0.6,1.9-1.6,2.3c-0.2,0.1-0.5,0.2-0.7,0.4c-0.2,0.1-0.5,0.3-0.7,0.4c-0.9,0.5-1.9,0.5-2.8,0L74,122l-5.9,9.5l2.9,1.8
			c0.9,0.5,1.3,1.5,1.2,2.5c0,0.6-0.1,1.1-0.1,1.7c0,1-0.5,1.9-1.4,2.4l-3,1.6l5.3,9.8l3-1.6c0.9-0.5,1.9-0.4,2.8,0.2
			c0.5,0.3,0.9,0.6,1.4,0.9c0.9,0.5,1.4,1.4,1.4,2.4l-0.1,3.4l11.2,0.3l0.1-3.4c0-1,0.6-1.9,1.6-2.3c0.2-0.1,0.5-0.2,0.7-0.4
			c0.2-0.1,0.5-0.3,0.7-0.4c0.9-0.5,1.9-0.6,2.8,0L101.5,152.2z M92.1,145.2c-4.5,2.4-10,0.7-12.4-3.7c-2.4-4.5-0.7-10,3.7-12.4
			c4.5-2.4,10-0.7,12.4,3.7C98.2,137.3,96.5,142.8,92.1,145.2z"/>
	</g>
</g>
<g id="Plant">
	<g>
		<g>
			<path fill="#263238" d="M88.8,167.6c-13.1,12.8-15.3,32.6-12.5,49.9c0.1,0.4,0.7,0.3,0.7-0.1c0-3.9-0.1-7.9-0.1-11.8
				c0.1-0.2,0.1-0.3,0.2-0.5c3.4-2.5,6.5-5.3,8.5-9.1c2.2-4.3,3-9.1,4.7-13.6c0.2-0.4-0.3-0.3-0.6-0.1c-7.9,5.9-10.5,12.2-12.8,20.6
				c0.1-4.4,0.4-8.8,1.4-13.1c1.7-8,5.1-15.9,10.9-21.9C89.4,167.7,89.1,167.3,88.8,167.6z"/>
			<g>
				<path fill="#FFC727" d="M91.3,169.1c2.2,0.1,3.7,3.7,5.4,4.7c0.9,0.6,1.8,0.5,2.5-0.4c1.7-2.4-0.6-5.4-2.9-7.1
					c1.6,0.7,2.9,1.8,4.7,2.1c1,0.2,1.9-0.2,2.1-1.3c0.8-3.3-3.4-4.8-6.2-4.8c1.4-1,5.3-3.6,3.2-4.8c-2.1-1.3-6.8,2.4-8.3,3.7
					c-2.2,1.8-4.9,4.5-5,7.3C86.7,171.8,89.6,169.7,91.3,169.1z"/>
				<path style="opacity:0.1" d="M91.3,169.1c2.2,0.1,3.7,3.7,5.4,4.7c0.9,0.6,1.8,0.5,2.5-0.4c1.7-2.4-0.6-5.4-2.9-7.1
					c1.6,0.7,2.9,1.8,4.7,2.1c1,0.2,1.9-0.2,2.1-1.3c0.8-3.3-3.4-4.8-6.2-4.8c1.4-1,5.3-3.6,3.2-4.8c-2.1-1.3-6.8,2.4-8.3,3.7
					c-2.2,1.8-4.9,4.5-5,7.3C86.7,171.8,89.6,169.7,91.3,169.1z"/>
				<path fill="#FFC727" d="M90.6,169.6c2.9-1.3,8.4,0.6,8.9-0.5c1-2.2-3.5-3.7-5.8-4c2.2-0.6,6.4-1.5,6.3-3.7
					c-0.2-2.6-6.4-0.4-9.6,2.1c-4,3.1-4,6-3.3,6.6C87.9,170.9,90.2,169.8,90.6,169.6z"/>
			</g>
		</g>
		<g>
			<path fill="#263238" d="M59.1,166.3c13.5,12.3,16.5,32,14.4,49.4c-0.1,0.4-0.7,0.3-0.7-0.1c-0.2-3.9-0.2-7.9-0.3-11.8
				c-0.1-0.2-0.1-0.3-0.2-0.5c-3.5-2.3-6.7-5-8.8-8.8c-2.3-4.2-3.4-9-5.2-13.4c-0.2-0.4,0.3-0.3,0.6-0.1
				c8.2,5.6,10.9,11.8,13.5,20.1c-0.3-4.4-0.8-8.7-1.9-13.1c-2-7.9-5.7-15.7-11.7-21.4C58.5,166.4,58.8,166.1,59.1,166.3z"/>
			<g>
				<path fill="#FFC727" d="M56.7,167.9c-2.2,0.2-3.5,3.8-5.2,4.9c-0.9,0.6-1.8,0.6-2.5-0.3c-1.8-2.4,0.4-5.4,2.6-7.2
					c-1.6,0.7-2.9,1.9-4.6,2.3c-1,0.2-1.9-0.1-2.1-1.2c-0.9-3.3,3.2-4.9,6-5.1c-1.4-0.9-5.5-3.4-3.4-4.7c2.1-1.4,6.9,2.2,8.4,3.3
					c2.3,1.7,5,4.3,5.2,7.1C61.4,170.4,58.4,168.5,56.7,167.9z"/>
				<path style="opacity:0.1" d="M56.7,167.9c-2.2,0.2-3.5,3.8-5.2,4.9c-0.9,0.6-1.8,0.6-2.5-0.3c-1.8-2.4,0.4-5.4,2.6-7.2
					c-1.6,0.7-2.9,1.9-4.6,2.3c-1,0.2-1.9-0.1-2.1-1.2c-0.9-3.3,3.2-4.9,6-5.1c-1.4-0.9-5.5-3.4-3.4-4.7c2.1-1.4,6.9,2.2,8.4,3.3
					c2.3,1.7,5,4.3,5.2,7.1C61.4,170.4,58.4,168.5,56.7,167.9z"/>
				<path fill="#FFC727" d="M57.3,168.4c-2.9-1.2-8.4,0.9-8.9-0.2c-1-2.2,3.3-3.9,5.7-4.2c-2.2-0.5-6.5-1.3-6.4-3.4
					c0.1-2.6,6.4-0.6,9.7,1.7c4.1,2.9,4.2,5.9,3.6,6.5C60.1,169.6,57.8,168.6,57.3,168.4z"/>
			</g>
		</g>
		<g>
			<path fill="#263238" d="M72.9,198.7c1,6.5,2.2,13.2,4.2,19.4c0.2,0.6,1,0.4,0.9-0.2c-0.9-6-2.5-11.9-3.4-17.9
				c-0.9-6.1-1.4-12.2-1-18.3c0.6-10.1,3.3-20.8,9.9-28.7c0.1-0.2-0.2-0.5-0.3-0.3C70,168.2,72.1,187,72.1,188.7
				c-1.9-6.4-3.8-13.7-10.8-20.1c-0.3-0.3-0.5-0.1-0.5,0.3c1.3,11.8,4.5,18,11.4,24.3C72.4,195.1,72.6,196.9,72.9,198.7z"/>
			<g>
				<path fill="#FFC727" d="M83.6,154.9c2.4-1.1,5.6,2,8,2.2c1.2,0.1,2.2-0.4,2.4-1.7c0.6-3.4-3.4-5.3-6.6-5.9c2-0.1,4,0.4,5.9-0.1
					c1.2-0.3,1.8-1.1,1.5-2.4c-0.9-3.8-5.9-3.3-8.9-1.9c0.9-1.7,3.7-6.4,0.9-6.7c-2.9-0.3-5.8,5.9-6.7,8c-1.4,3-2.8,7.1-1.5,10.1
					C80.2,160,82.2,156.4,83.6,154.9z"/>
				<path style="opacity:0.1" d="M83.6,154.9c2.4-1.1,5.6,2,8,2.2c1.2,0.1,2.2-0.4,2.4-1.7c0.6-3.4-3.4-5.3-6.6-5.9c2-0.1,4,0.4,5.9-0.1
					c1.2-0.3,1.8-1.1,1.5-2.4c-0.9-3.8-5.9-3.3-8.9-1.9c0.9-1.7,3.7-6.4,0.9-6.7c-2.9-0.3-5.8,5.9-6.7,8c-1.4,3-2.8,7.1-1.5,10.1
					C80.2,160,82.2,156.4,83.6,154.9z"/>
				<path fill="#FFC727" d="M83.3,155.8c2.3-2.8,9-3.6,8.9-5c-0.1-2.8-5.5-2.1-8.1-1.2c2-1.7,5.9-4.8,4.7-6.9c-1.5-2.6-6.9,2.9-8.9,7
					c-2.6,5.2-1.1,8.3-0.1,8.6C81.1,158.5,82.9,156.2,83.3,155.8z"/>
			</g>
		</g>
		<path fill="#FFC727" d="M64.3,202.3l-5.8,44.4h35.4c-0.7-3.9-7.3-44.5-7.3-44.5L64.3,202.3z"/>
	</g>
</g>
<g id="Floor">
	<g>
		<polygon fill="#263238" points="43.4,246.9 95,246.6 146.7,246.5 250,246.4 353.3,246.5 405,246.6 456.6,246.9 405,247.1 
			353.3,247.2 250,247.4 146.7,247.2 95,247.1 		"/>
	</g>
</g>
<g id="Shadow">
	<ellipse fill="#EBEBEB" cx="250" cy="312.8" rx="149.1" ry="21.1"/>
</g>
<g id="Robot">
	<g>
		<g>
			<rect x="235.1" y="177.6" fill="#37474F" width="35.5" height="2.9"/>
			<rect x="235.1" y="181.4" fill="#37474F" width="35.5" height="2.9"/>
			<rect x="235.1" y="185.1" fill="#37474F" width="35.5" height="2.9"/>
			<rect x="235.1" y="188.9" fill="#37474F" width="35.5" height="2.9"/>
			<rect x="235.1" y="192.7" fill="#37474F" width="35.5" height="2.9"/>
		</g>
		<g>
			<rect x="218.5" y="268.3" fill="#37474F" width="67.5" height="2.9"/>
			<rect x="218.5" y="272.1" fill="#37474F" width="67.5" height="2.9"/>
			<rect x="218.5" y="275.9" fill="#37474F" width="67.5" height="2.9"/>
			<rect x="218.5" y="279.7" fill="#37474F" width="67.5" height="2.9"/>
			<rect x="218.5" y="283.5" fill="#37474F" width="67.5" height="2.9"/>
		</g>
		<g>
			<g>
				<path fill="#FFC727" d="M188.8,153.5c0-0.4-14.8-5.4-14.8-5.4l0.9-50.9l19.6-4.2L188.8,153.5z"/>
				<path style="opacity:0.2" d="M188.8,153.5c0-0.4-14.8-5.4-14.8-5.4l0.9-50.9l19.6-4.2L188.8,153.5z"/>
			</g>
			<g>
				<path fill="#FFC727" d="M324.5,173.5c0.1-0.4,15.7,0.1,15.7,0.1l16.7-48.1l-17-10.7L324.5,173.5z"/>
				<path style="opacity:0.2" d="M324.5,173.5c0.1-0.4,15.7,0.1,15.7,0.1l16.7-48.1l-17-10.7L324.5,173.5z"/>
			</g>
			<path fill="#FFC727" d="M186,172.3c0,0,5.5-82.3,10.3-109.4c0,0,99.4,7.5,153.1,28c0,0-27.7,96.1-29.1,100.9
				C320.3,191.8,250.3,178,186,172.3z"/>
			<g>
				<path style="opacity:0.1" d="M274.7,73.9c-1.6,9.9-3.3,19.8-4.9,29.7l-5.1,29.7l-0.3-0.4l33.3,7.9l16.6,4l16.6,4.1l-16.7-3.7l-16.7-3.8
					l-33.3-7.8l-0.3-0.1l0.1-0.3l5.3-29.6C271,93.6,272.9,83.7,274.7,73.9z"/>
				<path style="opacity:0.1" d="M271.1,79.5c0,0.9-0.7,1.8-1.7,1.9c-0.5,0-1.1-0.1-1.5-0.5c-0.4-0.4-0.7-0.9-0.7-1.5c0-0.6,0.2-1.1,0.7-1.5
					c0.4-0.4,1-0.5,1.5-0.5C270.4,77.7,271.1,78.6,271.1,79.5z M271.1,79.5c0-0.5-0.2-0.9-0.5-1.2c-0.3-0.3-0.8-0.4-1.2-0.4
					c-0.8,0.1-1.4,0.8-1.4,1.6c0,0.7,0.5,1.5,1.4,1.6c0.4,0,0.9-0.1,1.2-0.4C270.9,80.4,271.1,80,271.1,79.5z"/>
				<path style="opacity:0.1" d="M269.3,91.8c0,0.9-0.7,1.8-1.7,1.9c-0.5,0-1.1-0.1-1.5-0.5c-0.4-0.4-0.7-0.9-0.7-1.5c0-0.6,0.2-1.1,0.7-1.5
					c0.4-0.4,1-0.5,1.5-0.5C268.6,89.9,269.3,90.9,269.3,91.8z M269.3,91.8c0-0.5-0.2-0.9-0.5-1.2c-0.3-0.3-0.8-0.4-1.2-0.4
					c-0.8,0.1-1.4,0.8-1.4,1.6c0,0.7,0.5,1.5,1.4,1.6c0.4,0,0.9-0.1,1.2-0.4C269.1,92.7,269.3,92.2,269.3,91.8z"/>
				<path style="opacity:0.1" d="M267.2,104.7c0,0.9-0.7,1.8-1.7,1.9c-0.5,0-1.1-0.1-1.5-0.5c-0.4-0.4-0.7-0.9-0.7-1.5
					c0-0.6,0.2-1.1,0.7-1.5c0.4-0.4,1-0.5,1.5-0.5C266.5,102.9,267.2,103.8,267.2,104.7z M267.2,104.7c0-0.5-0.2-0.9-0.5-1.2
					c-0.3-0.3-0.8-0.4-1.2-0.4c-0.8,0.1-1.4,0.8-1.4,1.6c0,0.7,0.5,1.5,1.4,1.6c0.4,0,0.9-0.1,1.2-0.4
					C267,105.6,267.2,105.2,267.2,104.7z"/>
				<path style="opacity:0.1" d="M265,117.6c0,0.9-0.7,1.8-1.7,1.9c-0.5,0-1.1-0.1-1.5-0.5c-0.4-0.4-0.7-0.9-0.7-1.5c0-0.6,0.2-1.1,0.7-1.5
					c0.4-0.4,1-0.5,1.5-0.5C264.3,115.8,265,116.7,265,117.6z M265,117.6c0-0.5-0.2-0.9-0.5-1.2c-0.3-0.3-0.8-0.4-1.2-0.4
					c-0.8,0.1-1.4,0.8-1.4,1.6c0,0.7,0.5,1.5,1.4,1.6c0.4,0,0.9-0.1,1.2-0.4C264.8,118.6,265,118.1,265,117.6z"/>
				<path style="opacity:0.1" d="M272.3,138.3c0,0.9-0.7,1.8-1.7,1.9c-0.5,0-1.1-0.1-1.5-0.5c-0.4-0.4-0.7-0.9-0.7-1.5
					c0-0.6,0.2-1.1,0.7-1.5c0.4-0.4,1-0.5,1.5-0.5C271.6,136.4,272.4,137.4,272.3,138.3z M272.3,138.3c0-0.5-0.2-0.9-0.5-1.2
					c-0.3-0.3-0.8-0.4-1.2-0.4c-0.8,0.1-1.4,0.8-1.4,1.6c0,0.7,0.5,1.5,1.4,1.6c0.4,0,0.9-0.1,1.2-0.4
					C272.1,139.2,272.3,138.7,272.3,138.3z"/>
				<path style="opacity:0.1" d="M284.6,141.3c0,0.9-0.7,1.8-1.7,1.9c-0.5,0-1.1-0.1-1.5-0.5c-0.4-0.4-0.7-0.9-0.7-1.5
					c0-0.6,0.2-1.1,0.7-1.5c0.4-0.4,1-0.5,1.5-0.5C283.9,139.4,284.6,140.4,284.6,141.3z M284.6,141.3c0-0.5-0.2-0.9-0.5-1.2
					c-0.3-0.3-0.8-0.4-1.2-0.4c-0.8,0.1-1.4,0.8-1.4,1.6c0,0.7,0.5,1.5,1.4,1.6c0.4,0,0.9-0.1,1.2-0.4
					C284.4,142.2,284.6,141.7,284.6,141.3z"/>
				<path style="opacity:0.1" d="M296.8,144.2c0,0.9-0.7,1.8-1.7,1.9c-0.5,0-1.1-0.1-1.5-0.5c-0.4-0.4-0.7-0.9-0.7-1.5
					c0-0.6,0.2-1.1,0.7-1.5c0.4-0.4,1-0.5,1.5-0.5C296.1,142.4,296.8,143.3,296.8,144.2z M296.8,144.2c0-0.5-0.2-0.9-0.5-1.2
					c-0.3-0.3-0.8-0.4-1.2-0.4c-0.8,0.1-1.4,0.8-1.4,1.6c0,0.7,0.5,1.5,1.4,1.6c0.4,0,0.9-0.1,1.2-0.4
					C296.6,145.2,296.8,144.7,296.8,144.2z"/>
				<path style="opacity:0.1" d="M309,147.2c0,0.9-0.7,1.8-1.7,1.9c-0.5,0-1.1-0.1-1.5-0.5c-0.4-0.4-0.7-0.9-0.7-1.5c0-0.6,0.2-1.1,0.7-1.5
					c0.4-0.4,1-0.5,1.5-0.5C308.3,145.4,309,146.3,309,147.2z M309,147.2c0-0.5-0.2-0.9-0.5-1.2c-0.3-0.3-0.8-0.4-1.2-0.4
					c-0.8,0.1-1.4,0.8-1.4,1.6c0,0.7,0.5,1.5,1.4,1.6c0.4,0,0.9-0.1,1.2-0.4C308.8,148.1,309,147.7,309,147.2z"/>
				<path style="opacity:0.1" d="M321.2,150.3c-0.1,0.9-0.8,1.8-1.9,1.8c-0.5,0-1-0.2-1.4-0.6c-0.4-0.4-0.6-1-0.5-1.5c0-0.6,0.3-1.1,0.8-1.4
					c0.4-0.3,1-0.4,1.5-0.4C320.6,148.4,321.3,149.4,321.2,150.3z M321.2,150.3c0-0.5-0.1-0.9-0.5-1.2c-0.3-0.3-0.8-0.5-1.2-0.5
					c-0.8,0-1.4,0.7-1.5,1.4c-0.1,0.7,0.4,1.5,1.2,1.7c0.4,0.1,0.9,0,1.2-0.3C320.9,151.2,321.2,150.8,321.2,150.3z"/>
				<path style="opacity:0.1" d="M262.9,130.6c0,0.9-0.7,1.8-1.7,1.9c-0.5,0-1.1-0.1-1.5-0.5c-0.4-0.4-0.7-0.9-0.7-1.5
					c0-0.6,0.2-1.1,0.7-1.5c0.4-0.4,1-0.5,1.5-0.5C262.2,128.7,262.9,129.7,262.9,130.6z M262.9,130.6c0-0.5-0.2-0.9-0.5-1.2
					c-0.3-0.3-0.8-0.4-1.2-0.4c-0.8,0.1-1.4,0.8-1.4,1.6c0,0.7,0.5,1.5,1.4,1.6c0.4,0,0.9-0.1,1.2-0.4
					C262.7,131.5,262.9,131,262.9,130.6z"/>
			</g>
			<g>
				<g>
					
						<ellipse transform="matrix(0.7436 -0.6686 0.6686 0.7436 -30.3235 182.9879)" style="opacity:0.2" cx="223.4" cy="131" rx="28.2" ry="28.2"/>
					
						<ellipse transform="matrix(0.354 -0.9352 0.9352 0.354 21.7875 293.6083)" fill="#263238" cx="223.4" cy="131" rx="22.6" ry="22.6"/>
					<g>
						
							<rect x="216.3" y="122.3" transform="matrix(0.9871 0.1599 -0.1599 0.9871 22.7993 -33.4129)" fill="#FFC727" width="5.4" height="5.4"/>
						
							<rect x="211.9" y="116.1" transform="matrix(0.9871 0.1599 -0.1599 0.9871 21.7586 -32.7828)" fill="#FFC727" width="5.4" height="5.4"/>
						
							<rect x="233" y="119.5" transform="matrix(0.9871 0.1599 -0.1599 0.9871 22.5796 -36.1245)" fill="#FFC727" width="5.4" height="5.4"/>
						
							<rect x="208.5" y="137.2" transform="matrix(0.9871 0.1599 -0.1599 0.9871 25.0814 -31.9664)" fill="#FFC727" width="5.4" height="5.4"/>
						
							<rect x="229.6" y="140.6" transform="matrix(0.9871 0.1599 -0.1599 0.9871 25.9025 -35.3081)" fill="#FFC727" width="5.4" height="5.4"/>
						
							<rect x="214.6" y="132.7" transform="matrix(0.9871 0.1599 -0.1599 0.9871 24.4513 -33.007)" fill="#FFC727" width="5.4" height="5.4"/>
						
							<rect x="220.8" y="128.4" transform="matrix(0.9871 0.1599 -0.1599 0.9871 23.8305 -34.0454)" fill="#FFC727" width="5.4" height="5.4"/>
						
							<rect x="226.9" y="124" transform="matrix(0.9871 0.1599 -0.1599 0.9871 23.2098 -35.0838)" fill="#FFC727" width="5.4" height="5.4"/>
						
							<rect x="225.2" y="134.4" transform="matrix(0.9871 0.1599 -0.1599 0.9871 24.8649 -34.6816)" fill="#FFC727" width="5.4" height="5.4"/>
					</g>
				</g>
				<g>
					<g>
						
							<ellipse transform="matrix(0.6338 -0.7735 0.7735 0.6338 -0.9442 283.7323)" fill="#FFC727" cx="299.2" cy="142.9" rx="28.2" ry="28.2"/>
						
							<ellipse transform="matrix(0.6338 -0.7735 0.7735 0.6338 -0.9442 283.7323)" style="opacity:0.2" cx="299.2" cy="142.9" rx="28.2" ry="28.2"/>
						<path style="opacity:0.2" d="M326.7,149.4c-0.1,0.6-0.3,1.1-0.4,1.6l-55-11.7c0.1-1,0.3-2,0.5-3c3.6-15.2,18.8-24.5,34-20.9
							C320.9,119,330.3,134.2,326.7,149.4z"/>
					</g>
					
						<ellipse transform="matrix(0.9227 -0.3855 0.3855 0.9227 -31.9489 126.3864)" fill="#263238" cx="299.2" cy="142.9" rx="22.6" ry="22.6"/>
					<g>
						
							<rect x="296.5" y="129.5" transform="matrix(0.9729 0.2312 -0.2312 0.9729 41.1404 -65.3076)" fill="#FFC727" width="5.4" height="26.7"/>
					</g>
					<g>
						<path fill="#FFC727" d="M328.3,148.9l-57.8-13.7c3.8-16,19.8-25.8,35.8-22C322.2,116.9,332.1,132.9,328.3,148.9z"/>
						<path style="opacity:0.2" d="M328.3,148.9l-57.8-13.7c3.8-16,19.8-25.8,35.8-22C322.2,116.9,332.1,132.9,328.3,148.9z"/>
					</g>
				</g>
				<path style="opacity:0.1" d="M250.1,159.6c0.1-2.3,1-4.5,2.6-6.4c0.8-0.9,1.9-1.6,3.1-2.1c1.2-0.4,2.5-0.5,3.7-0.4
					c1.2,0.1,2.5,0.6,3.5,1.4c1,0.8,1.8,1.8,2.3,3c0.9,2.2,1,4.6,0.6,6.8c-0.4-2.2-0.9-4.4-2-6.1c-1-1.8-2.7-2.9-4.6-3.1
					c-2-0.2-3.9,0.3-5.5,1.6C252.2,155.7,251,157.6,250.1,159.6z"/>
			</g>
			<g>
				<path fill="#FFFFFF" d="M193.7,102.1c0.2-3,0.6-6,0.9-9c0.3-3,0.7-6,1-9c0.3-3,0.7-6,1.1-9c0.4-3,0.8-6,1.2-9l0.1-0.8l0.8,0.1
					c6.5,0.4,13,0.9,19.5,1.6c3.2,0.3,6.5,0.7,9.7,1.1c3.2,0.5,6.5,0.9,9.7,1.5l-19.5-1.2l-19.5-1.3l0.9-0.7c-0.4,3-0.9,6-1.3,9
					c-0.5,3-0.9,6-1.4,8.9c-0.5,3-1,6-1.5,8.9C194.8,96.1,194.3,99.1,193.7,102.1z"/>
				<path fill="#FFFFFF" d="M198.4,124.9c0.7-3.6,2.3-7.1,4.5-10.1c0.6-0.8,1.2-1.5,1.8-2.2c0.7-0.7,1.3-1.3,2-2
					c0.7-0.6,1.5-1.2,2.2-1.8c0.8-0.5,1.6-1,2.4-1.5c0.9-0.4,1.7-0.8,2.6-1.2l2.7-0.9l2.8-0.6c0.9-0.1,1.9-0.2,2.8-0.2
					c3.8-0.1,7.5,0.7,10.9,2.1c-3.6-0.7-7.2-1.1-10.8-0.7c-3.5,0.3-7,1.4-10.1,3.1c-3.1,1.7-5.9,4-8.2,6.7
					C201.7,118.4,199.8,121.5,198.4,124.9z"/>
				<path fill="#FFFFFF" d="M276.3,132.5c1.1-3.5,3.3-6.7,5.9-9.4c0.6-0.7,1.4-1.3,2.1-1.9c0.7-0.6,1.5-1.1,2.3-1.7
					c0.8-0.5,1.6-1,2.4-1.4c0.9-0.4,1.7-0.8,2.6-1.2c0.9-0.3,1.8-0.6,2.7-0.9l2.8-0.5l2.8-0.2c0.9,0,1.9,0.1,2.8,0.2
					c3.7,0.4,7.3,1.7,10.5,3.6c-3.5-1.2-7-2-10.6-2.2c-3.6-0.2-7.1,0.4-10.4,1.7c-3.3,1.2-6.4,3.2-9,5.6
					C280.4,126.5,278.1,129.3,276.3,132.5z"/>
			</g>
		</g>
		<g>
			<g>
				<g>
					<path fill="#FFC727" d="M189.1,223c-7.2,0-23.1-1.6-33.3-14.7c-13-16.8-8.3-48.9-8.1-50.3l5.7,0.9c0,0.3-4.5,31.1,7,45.9
						c11.3,14.5,31.7,12.4,31.9,12.4l0.6,5.7C192.7,222.8,191.3,223,189.1,223z"/>
					<path fill="#FFFFFF" style="opacity:0.4" d="M189.1,223c-7.2,0-23.1-1.6-33.3-14.7c-13-16.8-8.3-48.9-8.1-50.3l5.7,0.9c0,0.3-4.5,31.1,7,45.9
						c11.3,14.5,31.7,12.4,31.9,12.4l0.6,5.7C192.7,222.8,191.3,223,189.1,223z"/>
				</g>
				<path fill="#FFC727" d="M155.1,162.7c-1,0-2.1-0.1-3.2-0.3c-9.5-1.5-13.8-7.3-15.6-11.8c-1.9-4.5-2.3-10-1.3-16.3l12.1,2
					c-0.6,3.9-0.4,7.3,0.5,9.6c0.7,1.7,2,3.7,6.3,4.3c1.9,0.3,4,0.1,6.2-3.2c1.7-2.6,2.7-6,3.1-8.2l12.1,2c-0.3,1.7-1.5,7.8-5,13
					C166.6,159.7,161.2,162.7,155.1,162.7z"/>
				<g>
					<path fill="#FFC727" d="M201.1,239.4c0-0.3-10.3-1.9-10.3-1.9l-5-33.4l12.4-4.9L201.1,239.4z"/>
					<path style="opacity:0.2" d="M201.1,239.4c0-0.3-10.3-1.9-10.3-1.9l-5-33.4l12.4-4.9L201.1,239.4z"/>
				</g>
			</g>
			<g>
				<path fill="#FFC727" d="M302.3,239.4c0-0.3,10.3-1.7,10.3-1.7l5.7-33.3l-12.3-5.2L302.3,239.4z"/>
				<path style="opacity:0.2" d="M302.3,239.4c0-0.3,10.3-1.7,10.3-1.7l5.7-33.3l-12.3-5.2L302.3,239.4z"/>
			</g>
			<path fill="#FFC727" d="M196.8,191.7c0,0,82.8-3.5,110.8,1.1c0,0-8.2,80.1-8.7,81.7c0,0-82.4-0.2-95.2,0
				C203.7,274.5,196.7,221.2,196.8,191.7z"/>
			<g>
				<path style="opacity:0.2" d="M222,213.6c0,0,45.2-1.8,60.5,0.6c0,0-4.5,40.4-4.7,41.2c0,0-45-0.1-52,0
					C225.7,255.4,222.6,227.7,222,213.6z"/>
				<path style="opacity:0.2" d="M228.2,255.4c-1,0-1.9,0-2.4,0c0,0-3.1-27.7-3.8-41.7c0,0,1,0,2.8-0.1L228.2,255.4z"/>
				<g>
					<g>
						<g>
							<g>
								<path fill="#FFC727" d="M241.5,223.6c-2.5-0.8-5.2,0.6-6,3.1c-0.8,2.5,0.6,5.2,3.1,6c2.5,0.8,5.2-0.6,6-3.1
									C245.4,227.1,244,224.4,241.5,223.6z M244.1,229.4c-0.7,2.2-3.1,3.5-5.3,2.8c-2.2-0.7-3.5-3.1-2.8-5.3
									c0.7-2.2,3.1-3.5,5.3-2.8C243.5,224.9,244.8,227.2,244.1,229.4z M241.5,223.6c-2.5-0.8-5.2,0.6-6,3.1
									c-0.8,2.5,0.6,5.2,3.1,6c2.5,0.8,5.2-0.6,6-3.1C245.4,227.1,244,224.4,241.5,223.6z M244.1,229.4c-0.7,2.2-3.1,3.5-5.3,2.8
									c-2.2-0.7-3.5-3.1-2.8-5.3c0.7-2.2,3.1-3.5,5.3-2.8C243.5,224.9,244.8,227.2,244.1,229.4z M241.5,223.6
									c-2.5-0.8-5.2,0.6-6,3.1c-0.8,2.5,0.6,5.2,3.1,6c2.5,0.8,5.2-0.6,6-3.1C245.4,227.1,244,224.4,241.5,223.6z M244.1,229.4
									c-0.7,2.2-3.1,3.5-5.3,2.8c-2.2-0.7-3.5-3.1-2.8-5.3c0.7-2.2,3.1-3.5,5.3-2.8C243.5,224.9,244.8,227.2,244.1,229.4z
									 M243.1,218.5c-5.3-1.7-11,1.3-12.7,6.6c-1.7,5.3,1.3,11,6.6,12.7c5.3,1.7,11-1.3,12.7-6.6
									C251.4,225.9,248.4,220.2,243.1,218.5z M245.3,229.8c-0.9,2.9-4,4.6-7,3.6c-2.9-0.9-4.5-4-3.6-7c0.9-2.9,4-4.5,7-3.6
									C244.6,223.8,246.3,226.9,245.3,229.8z M244.6,229.6c0.8-2.5-0.6-5.2-3.1-6c-2.5-0.8-5.2,0.6-6,3.1c-0.8,2.5,0.6,5.2,3.1,6
									C241.1,233.6,243.8,232.2,244.6,229.6z M244.1,229.4c-0.7,2.2-3.1,3.5-5.3,2.8c-2.2-0.7-3.5-3.1-2.8-5.3
									c0.7-2.2,3.1-3.5,5.3-2.8C243.5,224.9,244.8,227.2,244.1,229.4z M241.5,223.6c-2.5-0.8-5.2,0.6-6,3.1
									c-0.8,2.5,0.6,5.2,3.1,6c2.5,0.8,5.2-0.6,6-3.1C245.4,227.1,244,224.4,241.5,223.6z M244.1,229.4c-0.7,2.2-3.1,3.5-5.3,2.8
									c-2.2-0.7-3.5-3.1-2.8-5.3c0.7-2.2,3.1-3.5,5.3-2.8C243.5,224.9,244.8,227.2,244.1,229.4z M241.5,223.6
									c-2.5-0.8-5.2,0.6-6,3.1c-0.8,2.5,0.6,5.2,3.1,6c2.5,0.8,5.2-0.6,6-3.1C245.4,227.1,244,224.4,241.5,223.6z M244.1,229.4
									c-0.7,2.2-3.1,3.5-5.3,2.8c-2.2-0.7-3.5-3.1-2.8-5.3c0.7-2.2,3.1-3.5,5.3-2.8C243.5,224.9,244.8,227.2,244.1,229.4z"/>
								<g>
									<polygon fill="#FFC727" points="239,238 235.3,236.9 234.6,239.6 238,240.6 									"/>
									<polygon fill="#FFC727" points="232.3,234.5 230.5,231.1 228.2,232.6 229.8,235.6 									"/>
									<polygon fill="#FFC727" points="230,227.4 231.2,223.7 228.5,223 227.5,226.3 									"/>
									<polygon fill="#FFC727" points="233.5,220.7 237,218.9 235.5,216.5 232.4,218.1 									"/>
									<polygon fill="#FFC727" points="240.7,218.4 244.4,219.6 245.1,216.9 241.7,215.9 									"/>
									<polygon fill="#FFC727" points="247.4,221.9 249.2,225.4 251.5,223.9 249.9,220.8 									"/>
									<polygon fill="#FFC727" points="249.7,229.1 248.5,232.8 251.2,233.4 252.2,230.1 									"/>
									<polygon fill="#FFC727" points="246.2,235.8 242.7,237.6 244.2,239.9 247.3,238.3 									"/>
								</g>
							</g>
						</g>
					</g>
				</g>
				<g>
					<g>
						<g>
							<g>
								<path fill="#DBDBDB" d="M257.8,237.7c-1.5-1-3.5-0.6-4.5,0.9c-1,1.5-0.6,3.5,0.9,4.5c1.5,1,3.5,0.6,4.5-0.9
									C259.8,240.7,259.3,238.7,257.8,237.7z M258.4,242c-0.9,1.3-2.6,1.7-3.9,0.8c-1.3-0.9-1.7-2.6-0.8-3.9
									c0.9-1.3,2.6-1.7,3.9-0.8C258.9,238.9,259.3,240.7,258.4,242z M257.8,237.7c-1.5-1-3.5-0.6-4.5,0.9c-1,1.5-0.6,3.5,0.9,4.5
									c1.5,1,3.5,0.6,4.5-0.9C259.8,240.7,259.3,238.7,257.8,237.7z M258.4,242c-0.9,1.3-2.6,1.7-3.9,0.8
									c-1.3-0.9-1.7-2.6-0.8-3.9c0.9-1.3,2.6-1.7,3.9-0.8C258.9,238.9,259.3,240.7,258.4,242z M257.8,237.7
									c-1.5-1-3.5-0.6-4.5,0.9c-1,1.5-0.6,3.5,0.9,4.5c1.5,1,3.5,0.6,4.5-0.9C259.8,240.7,259.3,238.7,257.8,237.7z M258.4,242
									c-0.9,1.3-2.6,1.7-3.9,0.8c-1.3-0.9-1.7-2.6-0.8-3.9c0.9-1.3,2.6-1.7,3.9-0.8C258.9,238.9,259.3,240.7,258.4,242z
									 M259.8,234.7c-3.2-2.1-7.4-1.2-9.4,2c-2.1,3.2-1.2,7.4,2,9.4c3.2,2.1,7.4,1.2,9.4-2C263.8,241,262.9,236.8,259.8,234.7z
									 M259.2,242.5c-1.1,1.7-3.4,2.2-5.2,1.1c-1.7-1.1-2.2-3.4-1.1-5.2c1.1-1.7,3.4-2.2,5.2-1.1
									C259.8,238.4,260.3,240.8,259.2,242.5z M258.8,242.2c1-1.5,0.6-3.5-0.9-4.5c-1.5-1-3.5-0.6-4.5,0.9c-1,1.5-0.6,3.5,0.9,4.5
									C255.8,244.1,257.8,243.7,258.8,242.2z M258.4,242c-0.9,1.3-2.6,1.7-3.9,0.8c-1.3-0.9-1.7-2.6-0.8-3.9
									c0.9-1.3,2.6-1.7,3.9-0.8C258.9,238.9,259.3,240.7,258.4,242z M257.8,237.7c-1.5-1-3.5-0.6-4.5,0.9c-1,1.5-0.6,3.5,0.9,4.5
									c1.5,1,3.5,0.6,4.5-0.9C259.8,240.7,259.3,238.7,257.8,237.7z M258.4,242c-0.9,1.3-2.6,1.7-3.9,0.8
									c-1.3-0.9-1.7-2.6-0.8-3.9c0.9-1.3,2.6-1.7,3.9-0.8C258.9,238.9,259.3,240.7,258.4,242z M257.8,237.7
									c-1.5-1-3.5-0.6-4.5,0.9c-1,1.5-0.6,3.5,0.9,4.5c1.5,1,3.5,0.6,4.5-0.9C259.8,240.7,259.3,238.7,257.8,237.7z M258.4,242
									c-0.9,1.3-2.6,1.7-3.9,0.8c-1.3-0.9-1.7-2.6-0.8-3.9c0.9-1.3,2.6-1.7,3.9-0.8C258.9,238.9,259.3,240.7,258.4,242z"/>
								<g>
									<polygon fill="#DBDBDB" points="253.6,246.6 251.4,245.2 250.5,246.8 252.5,248.1 									"/>
									<polygon fill="#DBDBDB" points="249.9,243.2 249.4,240.6 247.6,241.1 248.1,243.4 									"/>
									<polygon fill="#DBDBDB" points="249.7,238.1 251.2,235.9 249.5,235 248.3,237 									"/>
									<polygon fill="#DBDBDB" points="253.2,234.4 255.8,233.9 255.2,232.1 253,232.6 									"/>
									<polygon fill="#DBDBDB" points="258.3,234.2 260.5,235.7 261.4,234 259.4,232.8 									"/>
									<polygon fill="#DBDBDB" points="262,237.7 262.5,240.3 264.3,239.7 263.8,237.5 									"/>
									<polygon fill="#DBDBDB" points="262.1,242.8 260.7,245 262.3,245.9 263.6,243.9 									"/>
									<polygon fill="#DBDBDB" points="258.7,246.5 256.1,247 256.6,248.8 258.9,248.3 									"/>
								</g>
							</g>
						</g>
					</g>
				</g>
			</g>
			<g>
				<polygon fill="#FFC727" points="305.6,265.1 308.8,265.7 317.9,204.1 314.3,203.4 				"/>
				<g>
					<path fill="#FFC727" d="M277.7,255.4l4.7-41.2l31.8-10.8c0,0-8.7,62.4-8.7,61.7L277.7,255.4z"/>
					<path fill="#FFFFFF" style="opacity:0.4" d="M277.7,255.4l4.7-41.2l31.8-10.8c0,0-8.7,62.4-8.7,61.7L277.7,255.4z"/>
				</g>
			</g>
			<path fill="#FFFFFF" d="M200.6,215.9c-0.5-3.4-0.8-6.9-1-10.3c-0.1-1.7-0.1-3.4-0.2-5.2c0-1.7-0.1-3.5,0-5.2l0-0.5l0.4,0
				c6.3-0.3,12.6-0.8,19-1c6.3-0.3,12.6-0.6,19-0.8c-6.3,0.6-12.6,1.1-18.9,1.5c-6.3,0.5-12.6,0.8-18.9,1.3l0.5-0.5l0,5.1l0.1,5.2
				c0,1.7,0,3.4,0.1,5.2L200.6,215.9z"/>
			<path fill="#FFFFFF" d="M286.9,214.8c2-0.9,4-1.8,6-2.6c2-0.8,4.1-1.6,6.1-2.3c2.1-0.7,4.1-1.4,6.2-2c2.1-0.6,4.2-1.1,6.4-1.5
				l0.5-0.1l-0.1,0.5c-0.5,2.7-1,5.3-1.6,8c0.2-2.7,0.6-5.4,0.9-8.1l0.4,0.4c-2.1,0.5-4.2,1.1-6.3,1.7c-2.1,0.6-4.1,1.3-6.2,1.9
				L286.9,214.8z"/>
			<g>
				<polygon style="opacity:0.1" points="214.4,191.8 214.9,202.1 215.4,212.4 216.2,233.1 216.8,253.7 217.1,264 217.2,274.3 216.7,264 
					216.2,253.7 215.4,233.1 214.8,212.5 214.6,202.2 				"/>
				<path style="opacity:0.1" d="M211.5,198.1c0.2,0.9-0.3,1.9-1.3,2.2c-0.5,0.1-1.1,0.1-1.5-0.2c-0.5-0.3-0.8-0.8-0.9-1.3
					c-0.1-0.5,0-1.1,0.4-1.6c0.3-0.4,0.8-0.7,1.3-0.8C210.4,196.4,211.3,197.2,211.5,198.1z M211.5,198.1c-0.1-0.4-0.4-0.8-0.8-1.1
					c-0.4-0.2-0.9-0.2-1.2-0.1c-0.8,0.3-1.2,1.1-1,1.8c0.1,0.7,0.8,1.3,1.7,1.3c0.4,0,0.8-0.2,1.1-0.6
					C211.4,199,211.5,198.5,211.5,198.1z"/>
				<path style="opacity:0.1" d="M212.2,210.4c0.2,0.9-0.3,1.9-1.3,2.2c-0.5,0.1-1.1,0.1-1.5-0.2c-0.5-0.3-0.8-0.8-0.9-1.3
					c-0.1-0.5,0-1.1,0.4-1.6c0.3-0.4,0.8-0.7,1.3-0.8C211.1,208.7,212,209.5,212.2,210.4z M212.2,210.4c-0.1-0.4-0.4-0.8-0.8-1.1
					c-0.4-0.2-0.9-0.2-1.2-0.1c-0.8,0.3-1.2,1.1-1,1.8c0.1,0.7,0.8,1.3,1.7,1.3c0.4,0,0.8-0.2,1.1-0.6
					C212.1,211.3,212.2,210.9,212.2,210.4z"/>
				<path style="opacity:0.1" d="M212.6,223.5c0.2,0.9-0.3,1.9-1.3,2.2c-0.5,0.1-1.1,0.1-1.5-0.2c-0.5-0.3-0.8-0.8-0.9-1.3
					c-0.1-0.5,0-1.1,0.4-1.6c0.3-0.4,0.8-0.7,1.3-0.8C211.6,221.8,212.5,222.6,212.6,223.5z M212.6,223.5c-0.1-0.4-0.4-0.8-0.8-1.1
					c-0.4-0.2-0.9-0.2-1.2-0.1c-0.8,0.3-1.2,1.1-1,1.8c0.1,0.7,0.8,1.3,1.7,1.3c0.4,0,0.8-0.2,1.1-0.6
					C212.6,224.4,212.7,224,212.6,223.5z"/>
				<path style="opacity:0.1" d="M213.1,236.6c0.2,0.9-0.3,1.9-1.3,2.2c-0.5,0.1-1.1,0.1-1.5-0.2c-0.5-0.3-0.8-0.8-0.9-1.3
					c-0.1-0.5,0-1.1,0.4-1.6c0.3-0.4,0.8-0.7,1.3-0.8C212,235,212.9,235.7,213.1,236.6z M213.1,236.6c-0.1-0.4-0.4-0.8-0.8-1.1
					c-0.4-0.2-0.9-0.2-1.2-0.1c-0.8,0.3-1.2,1.1-1,1.8c0.1,0.7,0.8,1.3,1.7,1.3c0.4,0,0.8-0.2,1.1-0.6
					C213,237.6,213.1,237.1,213.1,236.6z"/>
				<path style="opacity:0.1" d="M213.5,249.7c0.2,0.9-0.3,1.9-1.3,2.2c-0.5,0.1-1.1,0.1-1.5-0.2c-0.5-0.3-0.8-0.8-0.9-1.3
					c-0.1-0.5,0-1.1,0.4-1.6c0.3-0.4,0.8-0.7,1.3-0.8C212.5,248.1,213.4,248.8,213.5,249.7z M213.5,249.7c-0.1-0.4-0.4-0.8-0.8-1.1
					c-0.4-0.2-0.9-0.2-1.2-0.1c-0.8,0.3-1.2,1.1-1,1.8c0.1,0.7,0.8,1.3,1.7,1.3c0.4,0,0.8-0.2,1.1-0.6
					C213.5,250.7,213.6,250.2,213.5,249.7z"/>
				<path style="opacity:0.1" d="M214,262.8c0.2,0.9-0.3,1.9-1.3,2.2c-0.5,0.1-1.1,0.1-1.5-0.2c-0.5-0.3-0.8-0.8-0.9-1.3
					c-0.1-0.5,0-1.1,0.4-1.6c0.3-0.4,0.8-0.7,1.3-0.8C212.9,261.2,213.8,261.9,214,262.8z M214,262.8c-0.1-0.4-0.4-0.8-0.8-1.1
					c-0.4-0.2-0.9-0.2-1.2-0.1c-0.8,0.3-1.2,1.1-1,1.8c0.1,0.7,0.8,1.3,1.7,1.3c0.4,0,0.8-0.2,1.1-0.6
					C213.9,263.8,214,263.3,214,262.8z"/>
			</g>
		</g>
		<g>
			<rect x="170.9" y="289.9" transform="matrix(0.957 -0.29 0.29 0.957 -76.5005 69.2631)" fill="#FFC727" width="49" height="5.7"/>
			<rect x="170.9" y="289.9" transform="matrix(0.957 -0.29 0.29 0.957 -76.5005 69.2631)" fill="#FFFFFF" style="opacity:0.4" width="49" height="5.7"/>
			
				<rect x="191.3" y="288.5" transform="matrix(0.953 -0.3031 0.3031 0.953 -79.5898 72.61)" fill="#FFC727" width="5.7" height="8.5"/>
			<g>
				<polygon fill="#FFC727" points="172.4,310.6 160.3,258.2 123.8,266.9 141.8,317.9 				"/>
				<g>
					<polygon fill="#FFC727" points="180.5,307.9 172.4,310.6 160.3,258.2 172,261 					"/>
					<polygon style="opacity:0.2" points="180.5,307.9 172.4,310.6 160.3,258.2 172,261 					"/>
				</g>
			</g>
			<circle fill="#FFC727" cx="218.9" cy="285.6" r="6.2"/>
		</g>
		<g>
			
				<rect x="302.5" y="268.1" transform="matrix(0.292 -0.9564 0.9564 0.292 -63.654 499.2602)" fill="#FFC727" width="5.7" height="49"/>
			
				<rect x="302.5" y="268.1" transform="matrix(0.292 -0.9564 0.9564 0.292 -63.654 499.2602)" fill="#FFFFFF" style="opacity:0.4" width="5.7" height="49"/>
			
				<rect x="302.4" y="289.8" transform="matrix(0.3052 -0.9523 0.9523 0.3052 -65.5841 495.3654)" fill="#FFC727" width="8.5" height="5.7"/>
			<g>
				<polygon fill="#FFC727" points="328.4,310.5 340.6,258.2 377.1,266.9 359,317.9 				"/>
				<g>
					<polygon fill="#FFC727" points="320.3,307.9 328.4,310.5 340.6,258.2 328.9,260.9 					"/>
					<polygon style="opacity:0.2" points="320.3,307.9 328.4,310.5 340.6,258.2 328.9,260.9 					"/>
				</g>
			</g>
			<path fill="#FFC727" d="M275.8,285.5c0,3.4,2.8,6.2,6.2,6.2c3.4,0,6.2-2.8,6.2-6.2c0-3.4-2.8-6.2-6.2-6.2
				C278.6,279.3,275.8,282,275.8,285.5z"/>
		</g>
		<g>
			<g>
				<path fill="#FFC727" d="M322.7,220.9c0.1-0.1,15.2-14.1,32.9-9.3c18.1,4.9,33.1,32.2,33.2,32.4l5-2.7c-0.7-1.2-16.3-29.7-36.8-35.2
					c-20.9-5.6-37.6,10-38.3,10.7L322.7,220.9z"/>
				<path fill="#FFFFFF" style="opacity:0.4" d="M322.7,220.9c0.1-0.1,15.2-14.1,32.9-9.3c18.1,4.9,33.1,32.2,33.2,32.4l5-2.7
					c-0.7-1.2-16.3-29.7-36.8-35.2c-20.9-5.6-37.6,10-38.3,10.7L322.7,220.9z"/>
			</g>
			<path fill="#FFC727" d="M382.1,271.4l10.8-5.7c-1-2-2.3-5.4-2.5-8.4c-0.2-4,1.3-5.4,3.1-6.3c3.8-2,6.1-1.2,7.6-0.3
				c2.2,1.3,4.4,3.9,6.2,7.4l10.8-5.7c-3-5.6-6.6-9.7-10.8-12.2c-4.2-2.5-11-4.5-19.6,0c-6.7,3.5-10.1,9.9-9.6,17.9
				C378.6,264.3,381.3,269.9,382.1,271.4z"/>
		</g>
		<g>
			<path fill="#263238" d="M324.9,201.7c2.4-1.6,4.8-3.2,7.2-4.7c2.4-1.5,4.9-3,7.3-4.4c2.5-1.4,4.9-2.9,7.4-4.2l3.8-2
				c1.3-0.7,2.5-1.3,3.8-2c-1.2,0.8-2.4,1.6-3.6,2.4l-3.6,2.3c-2.4,1.5-4.9,3-7.3,4.4c-2.5,1.4-4.9,2.9-7.4,4.2
				C330,199.1,327.5,200.5,324.9,201.7z"/>
			<path fill="#263238" d="M318.7,225.1c3.4,1.9,6.6,4.1,9.7,6.3c3.1,2.2,6.2,4.6,9.1,7.1c-3.4-1.9-6.6-4.1-9.7-6.3
				C324.7,230,321.6,227.7,318.7,225.1z"/>
			<path fill="#263238" d="M324.2,222.3c2.6,0.8,5.2,1.7,7.7,2.6c2.6,0.9,5.1,1.9,7.6,2.8c2.5,1,5,2,7.5,3.1l3.7,1.6
				c1.2,0.6,2.5,1.1,3.7,1.7c-1.3-0.4-2.6-0.8-3.9-1.2l-3.8-1.3c-2.6-0.9-5.1-1.9-7.6-2.8c-2.5-1-5-2-7.5-3.1
				C329.2,224.5,326.7,223.4,324.2,222.3z"/>
			<path fill="#263238" d="M331.6,203.9c2.5-0.6,5-1.2,7.5-1.7c2.5-0.5,5-1,7.6-1.4c2.5-0.4,5.1-0.9,7.6-1.2l3.8-0.5
				c1.3-0.1,2.5-0.3,3.8-0.4c-1.2,0.3-2.5,0.6-3.7,0.9l-3.8,0.8c-2.5,0.5-5,1-7.6,1.4c-2.5,0.4-5.1,0.9-7.6,1.2
				C336.7,203.4,334.2,203.7,331.6,203.9z"/>
		</g>
	</g>
</g>
<g id="Gears">
	<g>
		<g>
			<path fill="#263238" d="M271.6,219.5c0.4-2,1.1-4,2-5.9c0.9-1.9,2-3.7,3.3-5.3c1.4-1.6,3-3,5-3.8c2-0.7,4.3-0.7,6.3,0.1
				c2,0.8,3.6,2.5,4.5,4.5c0.4,1,0.7,2,0.8,3.1c0.1,1.1,0.1,2.2-0.4,3.3c-0.2,0.5-0.6,1.1-1.1,1.4c-0.3,0.2-0.6,0.3-0.9,0.3
				c-0.3,0-0.6,0-1-0.1c-0.7-0.3-1-0.8-1.3-1.3c-0.3-0.5-0.5-1-0.6-1.5c-0.6-2.1-0.6-4.2-0.5-6.3c0.3-4.2,1.4-8.4,3.6-12
				c1.1-1.8,2.6-3.4,4.3-4.6c1.8-1.2,3.8-2,5.9-2.3c1-0.2,2.1-0.2,3.1-0.3c0.5-0.1,1.1,0.1,1.6,0.1c0.5,0.1,1.1,0.1,1.6,0.2
				c2.1,0.4,4,1.2,5.9,2.2c1.8,1,3.4,2.4,4.9,3.8c1.5,1.5,2.8,3.1,3.9,4.9c-2.4-3.4-5.4-6.3-9-8.3c-1.8-0.9-3.7-1.7-5.7-2
				c-0.5-0.1-1-0.1-1.5-0.2c-0.5,0-1-0.1-1.5-0.1c-1,0.1-2,0.1-3,0.3c-2,0.3-3.9,1.1-5.5,2.2c-1.7,1.1-3,2.7-4.1,4.4
				c-2.1,3.4-3.2,7.5-3.4,11.5c-0.1,2-0.1,4.1,0.4,6c0.2,0.9,0.7,1.9,1.3,2.2c0.1,0,0.1,0.1,0.2,0.1c0.1,0,0.2,0,0.3,0
				c0.2,0,0.4-0.1,0.5-0.2c0.3-0.2,0.6-0.6,0.8-1c0.4-0.8,0.4-1.9,0.3-2.8c-0.1-1-0.3-1.9-0.8-2.8c-0.8-1.8-2.2-3.4-4-4.1
				c-1.8-0.8-3.9-0.8-5.8-0.2c-1.9,0.7-3.5,2-4.9,3.5C274.6,211.7,272.7,215.5,271.6,219.5z"/>
		</g>
		<g>
			<path fill="#263238" d="M179.2,245.4c1-1.8,2.4-3.4,4-4.6c1.7-1.2,3.6-2.2,5.6-2.7c2-0.5,4.2-0.5,6.3,0.1c2,0.6,3.9,1.8,5.3,3.3
				c1.5,1.5,2.6,3.4,3.3,5.3c0.7,2,1.2,4.1,1,6.2c-0.1,1.1-0.3,2.2-1.2,3.1c-0.4,0.5-1.1,0.7-1.7,0.8c-0.6,0-1.2-0.1-1.7-0.4
				c-0.5-0.3-1-0.8-1.2-1.3c-0.3-0.5-0.4-1.1-0.4-1.7c0-1.1,0.2-2.2,0.5-3.2c0.7-2,1.8-3.9,3.1-5.5c1.3-1.7,2.8-3.1,4.5-4.4
				c3.4-2.5,7.7-3.8,11.9-3.3c2.1,0.3,4.1,0.9,6,1.9c1.8,1,3.4,2.4,4.7,4.1c1.3,1.6,2.3,3.5,3.1,5.4c0.8,1.9,1.4,3.9,1.6,5.9
				c-0.8-4-2.5-7.9-5.1-11c-1.3-1.6-2.9-2.9-4.6-3.8c-1.8-1-3.7-1.5-5.7-1.7c-4-0.4-8.1,0.8-11.3,3.2c-3.2,2.4-5.9,5.7-7.2,9.4
				c-0.3,0.9-0.5,1.9-0.5,2.8c0,0.9,0.3,1.8,1.1,2.2c0.4,0.2,0.8,0.3,1.3,0.3c0.4,0,0.8-0.2,1.1-0.5c0.6-0.6,0.8-1.6,0.9-2.6
				c0.2-2-0.2-4-0.9-5.8c-0.7-1.9-1.8-3.6-3.1-5.1c-1.4-1.5-3.1-2.6-5-3.2c-1.9-0.6-4-0.7-5.9-0.3
				C185,239.5,181.4,241.9,179.2,245.4z"/>
		</g>
		<g>
			<path fill="#263238" d="M204.5,75.5c-0.1-4.1-1-8.3-2.9-11.9c-1-1.8-2.2-3.4-3.9-4.5c-1.7-1.1-3.7-1.5-5.7-1.2
				c-1.9,0.3-3.7,1.5-4.9,3c-0.6,0.8-1.1,1.7-1.4,2.6c-0.3,0.9-0.5,1.9-0.4,2.8c0.1,0.4,0.2,0.9,0.5,1.1c0.1,0.1,0.3,0.2,0.5,0.3
				c0.1,0,0.2,0,0.3,0.1c0.1,0,0.2,0,0.2,0c0.7-0.1,1.3-1,1.8-1.9c0.9-1.7,1.5-3.7,1.9-5.7c0.7-4,0.7-8.2-0.6-12
				c-0.6-1.9-1.6-3.7-2.9-5.2c-1.3-1.5-3-2.7-4.8-3.5c-0.9-0.5-1.9-0.7-2.8-1c-0.5-0.2-1-0.2-1.5-0.3c-0.5-0.1-1-0.2-1.5-0.2
				c-2-0.2-4.1,0.1-6,0.6c-4,1-7.6,3.2-10.7,5.9c1.5-1.5,3.1-2.7,4.9-3.8c1.8-1.1,3.7-2,5.7-2.6c2-0.5,4.1-0.9,6.2-0.8
				c0.5,0,1,0.1,1.6,0.2c0.5,0.1,1.1,0.1,1.6,0.3c1,0.3,2,0.5,3,1c2,0.7,3.8,2,5.2,3.6c1.4,1.6,2.4,3.5,3.1,5.5
				c1.3,4,1.4,8.4,0.7,12.5c-0.4,2.1-1,4.1-2,6c-0.3,0.5-0.6,0.9-0.9,1.4c-0.4,0.4-0.8,0.8-1.6,1c-0.4,0-0.7,0-1-0.1
				c-0.3-0.1-0.6-0.3-0.8-0.5c-0.4-0.5-0.6-1.1-0.7-1.6c-0.2-1.1,0.1-2.2,0.4-3.3c0.4-1,0.9-2,1.6-2.8c1.3-1.7,3.3-3,5.4-3.3
				c2.1-0.3,4.4,0.2,6.1,1.4c1.8,1.2,3,3,4,4.8c0.9,1.9,1.5,3.9,1.9,5.9C204.4,71.4,204.6,73.4,204.5,75.5z"/>
		</g>
		<g>
			<g>
				<g>
					<g>
						<path fill="#455A64" d="M175.9,245.6c-2.2-0.7-4.6,0.5-5.3,2.8c-0.7,2.2,0.5,4.6,2.8,5.3c2.2,0.7,4.6-0.5,5.3-2.8
							C179.4,248.7,178.1,246.4,175.9,245.6z M178.2,250.8c-0.6,2-2.7,3.1-4.7,2.4c-2-0.6-3.1-2.7-2.4-4.7c0.6-2,2.7-3.1,4.7-2.4
							C177.7,246.8,178.8,248.9,178.2,250.8z M175.9,245.6c-2.2-0.7-4.6,0.5-5.3,2.8c-0.7,2.2,0.5,4.6,2.8,5.3
							c2.2,0.7,4.6-0.5,5.3-2.8C179.4,248.7,178.1,246.4,175.9,245.6z M178.2,250.8c-0.6,2-2.7,3.1-4.7,2.4c-2-0.6-3.1-2.7-2.4-4.7
							c0.6-2,2.7-3.1,4.7-2.4C177.7,246.8,178.8,248.9,178.2,250.8z M175.9,245.6c-2.2-0.7-4.6,0.5-5.3,2.8
							c-0.7,2.2,0.5,4.6,2.8,5.3c2.2,0.7,4.6-0.5,5.3-2.8C179.4,248.7,178.1,246.4,175.9,245.6z M178.2,250.8
							c-0.6,2-2.7,3.1-4.7,2.4c-2-0.6-3.1-2.7-2.4-4.7c0.6-2,2.7-3.1,4.7-2.4C177.7,246.8,178.8,248.9,178.2,250.8z M177.3,241.2
							c-4.7-1.5-9.8,1.1-11.2,5.9c-1.5,4.7,1.1,9.8,5.9,11.2c4.7,1.5,9.8-1.1,11.2-5.9C184.6,247.7,182,242.6,177.3,241.2z
							 M179.3,251.2c-0.8,2.6-3.6,4-6.2,3.2c-2.6-0.8-4-3.6-3.2-6.2c0.8-2.6,3.6-4,6.2-3.2C178.7,245.8,180.1,248.6,179.3,251.2z
							 M178.6,251c0.7-2.2-0.5-4.6-2.8-5.3c-2.2-0.7-4.6,0.5-5.3,2.8c-0.7,2.2,0.5,4.6,2.8,5.3C175.6,254.5,177.9,253.2,178.6,251z
							 M178.2,250.8c-0.6,2-2.7,3.1-4.7,2.4c-2-0.6-3.1-2.7-2.4-4.7c0.6-2,2.7-3.1,4.7-2.4C177.7,246.8,178.8,248.9,178.2,250.8z
							 M175.9,245.6c-2.2-0.7-4.6,0.5-5.3,2.8c-0.7,2.2,0.5,4.6,2.8,5.3c2.2,0.7,4.6-0.5,5.3-2.8
							C179.4,248.7,178.1,246.4,175.9,245.6z M178.2,250.8c-0.6,2-2.7,3.1-4.7,2.4c-2-0.6-3.1-2.7-2.4-4.7c0.6-2,2.7-3.1,4.7-2.4
							C177.7,246.8,178.8,248.9,178.2,250.8z M175.9,245.6c-2.2-0.7-4.6,0.5-5.3,2.8c-0.7,2.2,0.5,4.6,2.8,5.3
							c2.2,0.7,4.6-0.5,5.3-2.8C179.4,248.7,178.1,246.4,175.9,245.6z M178.2,250.8c-0.6,2-2.7,3.1-4.7,2.4c-2-0.6-3.1-2.7-2.4-4.7
							c0.6-2,2.7-3.1,4.7-2.4C177.7,246.8,178.8,248.9,178.2,250.8z"/>
						<g>
							<polygon fill="#455A64" points="173.7,258.4 170.4,257.4 169.8,259.8 172.7,260.7 							"/>
							<polygon fill="#455A64" points="167.8,255.3 166.2,252.3 164.1,253.6 165.5,256.3 							"/>
							<polygon fill="#455A64" points="165.8,249 166.8,245.7 164.4,245.1 163.5,248.1 							"/>
							<polygon fill="#455A64" points="168.8,243.1 171.9,241.5 170.6,239.4 167.9,240.8 							"/>
							<polygon fill="#455A64" points="175.2,241.1 178.5,242.1 179,239.7 176.1,238.8 							"/>
							<polygon fill="#455A64" points="181.1,244.2 182.7,247.2 184.8,245.9 183.3,243.2 							"/>
							<polygon fill="#455A64" points="183.1,250.5 182.1,253.8 184.4,254.3 185.4,251.4 							"/>
							<polygon fill="#455A64" points="180,256.4 177,258 178.3,260.1 181,258.7 							"/>
						</g>
					</g>
				</g>
			</g>
		</g>
		<g>
			<g>
				<path fill="#263238" d="M341.7,217.1c4.5-6.1,3.2-14.7-2.8-19.2c-6.1-4.5-14.7-3.2-19.2,2.8c-4.5,6.1-3.2,14.7,2.8,19.2
					C328.6,224.4,337.2,223.1,341.7,217.1z M335.8,212.7c-2.1,2.8-6.1,3.4-8.9,1.3c-2.8-2.1-3.4-6.1-1.3-9c2.1-2.8,6.1-3.4,8.9-1.3
					C337.3,205.9,337.9,209.9,335.8,212.7z"/>
				<polygon fill="#263238" points="325,221 320.7,217.9 318.7,221.1 322.5,223.8 				"/>
				<polygon fill="#263238" points="318,213.6 317.2,208.4 313.6,209.2 314.2,213.9 				"/>
				<polygon fill="#263238" points="318.3,203.4 321.4,199.2 318.2,197.2 315.4,201 				"/>
				<polygon fill="#263238" points="325.7,196.5 330.9,195.7 330,192 325.4,192.7 				"/>
				<polygon fill="#263238" points="335.8,196.7 340.1,199.9 342.1,196.7 338.3,193.9 				"/>
				<polygon fill="#263238" points="342.8,204.1 343.6,209.4 347.2,208.5 346.6,203.9 				"/>
				<polygon fill="#263238" points="342.5,214.3 339.4,218.5 342.6,220.5 345.4,216.8 				"/>
				<polygon fill="#263238" points="335.1,221.3 329.9,222.1 330.8,225.7 335.4,225 				"/>
			</g>
			<path fill="#263238" d="M325.8,209.6l2.9,3.7l4.6-0.7l1.7-4.4l-2.9-3.7l-4.6,0.7L325.8,209.6z M331.3,207.7c0.7,0.5,0.8,1.4,0.3,2.1
				c-0.5,0.7-1.4,0.8-2.1,0.3c-0.7-0.5-0.8-1.4-0.3-2.1C329.7,207.3,330.6,207.2,331.3,207.7z"/>
		</g>
		<g>
			<g>
				<path fill="#263238" d="M166.6,52.3c1.5-6.3-2.3-12.7-8.7-14.3c-6.3-1.5-12.7,2.3-14.3,8.7c-1.5,6.3,2.3,12.7,8.7,14.3
					C158.6,62.5,165,58.6,166.6,52.3z M160.5,50.8c-0.7,3-3.7,4.8-6.7,4c-3-0.7-4.8-3.7-4-6.7c0.7-3,3.7-4.8,6.7-4
					C159.4,44.9,161.2,47.8,160.5,50.8z"/>
				<polygon fill="#263238" points="154.6,61 150.2,59.9 149.7,63.1 153.6,64.1 				"/>
				<polygon fill="#263238" points="146.6,57.5 144.2,53.6 141.6,55.5 143.7,58.9 				"/>
				<polygon fill="#263238" points="143.4,49.3 144.5,44.9 141.3,44.4 140.4,48.3 				"/>
				<polygon fill="#263238" points="146.9,41.3 150.8,38.9 148.9,36.3 145.5,38.4 				"/>
				<polygon fill="#263238" points="155.1,38.1 159.5,39.2 160,36 156.1,35 				"/>
				<polygon fill="#263238" points="163.1,41.6 165.5,45.5 168.1,43.6 166,40.2 				"/>
				<polygon fill="#263238" points="166.3,49.8 165.3,54.2 168.4,54.7 169.4,50.8 				"/>
				<polygon fill="#263238" points="162.8,57.8 158.9,60.2 160.8,62.8 164.3,60.7 				"/>
			</g>
			<path fill="#263238" d="M151.4,51.7l3.5,1.9l3.4-2.1l-0.1-4l-3.5-1.9l-3.4,2.1L151.4,51.7z M155.2,48.3c0.7,0.2,1.1,0.9,0.9,1.5
				c-0.2,0.7-0.9,1.1-1.5,0.9c-0.7-0.2-1.1-0.9-0.9-1.5C153.8,48.6,154.5,48.2,155.2,48.3z"/>
		</g>
	</g>
</g>
</svg>
