<?xml version="1.0" encoding="utf-8"?>
<!-- Generator: Adobe Illustrator 24.0.0, SVG Export Plug-In . SVG Version: 6.00 Build 0)  -->
<svg version="1.1" xmlns="http://www.w3.org/2000/svg" xmlns:xlink="http://www.w3.org/1999/xlink" x="0px" y="0px"
	 viewBox="0 0 750 500" enable-background="new 0 0 750 500" xml:space="preserve">
<g id="Background_Complete">
	<g>
		<polygon fill="#EBEBEB" points="666.9,150.3 657.4,196.6 651.2,190.6 640.7,198.1 632.7,188.1 614.8,201.2 599.4,175.5 
			582.3,185.6 575.5,176.2 553.8,188.4 547.2,174.4 562.5,100.6 644.2,117.5 		"/>
		<polygon fill="#DBDBDB" points="644.2,117.5 667,150.3 638.6,144.4 		"/>
		<polygon fill="#EBEBEB" points="655.3,205.9 641.3,273.9 531.3,251.2 545.2,183.7 551.7,197.7 573.5,185.5 580.3,194.8 
			597.4,184.8 612.7,210.5 630.7,197.4 638.7,207.3 649.2,199.9 		"/>
	</g>
	<g>
		<polygon fill="#EBEBEB" points="497.8,197.9 385.7,204.9 376.8,60.9 460,55.7 490.6,81.4 		"/>
		<polygon fill="#DBDBDB" points="460,55.7 490.6,81.4 461.7,83.2 		"/>
		<g>
			<path fill="#DBDBDB" d="M429,152.6l-0.4-3.2c-1.1-6.7,0.7-14.3,6.6-22.1c5.3-7,8.1-12,7.8-17.7c-0.4-6.4-4.6-10.4-12.5-10.1
				c-4.5,0.3-9.4,2-12.5,4.6l-3.5-7.7c4-3.2,11-5.6,17.7-6c14.4-0.8,21.4,7.7,22,17.3c0.5,8.5-3.9,14.9-9.6,22.4
				c-5.2,6.8-6.9,12.5-6.1,18.8l0.3,3.3L429,152.6z M427.2,170.3c-0.3-4.6,2.7-8.1,7.1-8.3c4.4-0.2,7.6,2.8,7.8,7.5
				c0.2,4.4-2.4,7.9-7.1,8.2C430.6,177.9,427.4,174.7,427.2,170.3z"/>
		</g>
	</g>
	<g>
		<path fill="#EBEBEB" d="M148.5,128.1l-11.3-5.1l-1.6,3.5c-0.5,1-1.5,1.7-2.6,1.7c-0.6,0-1.2,0.1-1.8,0.2c-1.1,0.2-2.2-0.3-2.8-1.2
			l-2.2-3.1l-10.1,7.2l2.2,3.1c0.6,0.9,0.7,2.1,0.2,3.1c-0.3,0.6-0.5,1.1-0.8,1.7c-0.4,1-1.3,1.8-2.4,1.9l-3.8,0.4l1.2,12.3l3.8-0.4
			c1.1-0.1,2.2,0.4,2.8,1.4c0.2,0.3,0.3,0.5,0.5,0.8c0.2,0.2,0.4,0.5,0.6,0.7c0.7,0.9,0.9,2,0.4,3l-1.6,3.5l11.3,5.1l1.6-3.5
			c0.5-1,1.5-1.7,2.6-1.7c0.6,0,1.2-0.1,1.8-0.2c1.1-0.2,2.2,0.3,2.8,1.2l2.2,3.1l10.1-7.2l-2.2-3.1c-0.6-0.9-0.7-2.1-0.2-3.1
			c0.3-0.5,0.5-1.1,0.8-1.7c0.4-1,1.3-1.8,2.4-1.9l3.8-0.4l-1.2-12.3l-3.8,0.4c-1.1,0.1-2.2-0.4-2.8-1.4c-0.2-0.3-0.3-0.5-0.5-0.8
			c-0.2-0.2-0.4-0.5-0.6-0.7c-0.7-0.9-0.9-2-0.4-3.1L148.5,128.1z M142.1,139.5c3.3,4.6,2.2,10.9-2.3,14.2
			c-4.6,3.3-10.9,2.2-14.2-2.3c-3.3-4.6-2.2-10.9,2.3-14.2C132.5,133.9,138.8,135,142.1,139.5z"/>
		<path fill="#EBEBEB" d="M658.4,291.7l-7.5,4.3l1.3,2.3c0.4,0.7,0.4,1.5-0.1,2.2c-0.2,0.4-0.5,0.7-0.6,1.1
			c-0.4,0.7-1.1,1.1-1.8,1.1H647v8.7h2.7c0.8,0,1.5,0.4,1.8,1.1c0.2,0.4,0.4,0.8,0.6,1.1c0.4,0.7,0.5,1.5,0.1,2.2l-1.3,2.3l7.5,4.3
			l1.3-2.3c0.4-0.7,1.1-1.1,1.9-1c0.2,0,0.4,0,0.6,0c0.2,0,0.4,0,0.6,0c0.8,0,1.5,0.3,1.9,1l1.3,2.3l7.5-4.3l-1.3-2.3
			c-0.4-0.7-0.4-1.5,0.1-2.2c0.2-0.4,0.5-0.7,0.6-1.1c0.4-0.7,1.1-1.1,1.8-1.1h2.7v-8.7h-2.7c-0.8,0-1.5-0.4-1.8-1.1
			c-0.2-0.4-0.4-0.8-0.6-1.1c-0.4-0.7-0.5-1.5-0.1-2.2l1.3-2.3l-7.5-4.3l-1.3,2.3c-0.4,0.7-1.1,1-1.9,1c-0.2,0-0.4,0-0.6,0
			c-0.2,0-0.4,0-0.6,0c-0.8,0-1.5-0.3-1.9-1L658.4,291.7z M662.3,300c3.9,0,7.1,3.2,7.1,7.1c0,3.9-3.2,7.1-7.1,7.1
			c-3.9,0-7.1-3.2-7.1-7.1C655.2,303.2,658.3,300,662.3,300z"/>
		<path fill="#EBEBEB" d="M171.3,91.2l-6.9,5.3l1.6,2.1c0.5,0.6,0.5,1.5,0.2,2.2c-0.2,0.4-0.4,0.8-0.5,1.2c-0.3,0.7-0.9,1.3-1.7,1.4
			l-2.6,0.3l1.1,8.6l2.6-0.3c0.8-0.1,1.5,0.3,2,0.9c0.2,0.4,0.5,0.7,0.8,1c0.5,0.6,0.7,1.4,0.4,2.1l-1,2.5l8,3.3l1-2.5
			c0.3-0.7,1-1.2,1.8-1.2c0.2,0,0.4,0,0.6-0.1c0.2,0,0.4-0.1,0.6-0.1c0.8-0.1,1.5,0.1,2,0.8l1.6,2.1l6.9-5.3l-1.6-2.1
			c-0.5-0.6-0.5-1.5-0.2-2.2c0.2-0.4,0.4-0.8,0.5-1.2c0.3-0.7,0.9-1.3,1.7-1.4l2.6-0.3l-1.1-8.6l-2.6,0.3c-0.8,0.1-1.5-0.3-2-0.9
			c-0.2-0.4-0.5-0.7-0.8-1c-0.5-0.6-0.7-1.4-0.4-2.1l1-2.5l-8-3.3l-1,2.5c-0.3,0.7-1,1.2-1.8,1.2c-0.2,0-0.4,0-0.6,0.1
			c-0.2,0-0.4,0.1-0.6,0.1c-0.8,0.1-1.6-0.1-2-0.8L171.3,91.2z M176.2,98.9c3.9-0.5,7.5,2.2,8,6.1c0.5,3.9-2.2,7.5-6.1,8
			c-3.9,0.5-7.5-2.2-8-6.1C169.6,103,172.3,99.4,176.2,98.9z"/>
	</g>
	<g>
		<g>
			<path fill="#EBEBEB" d="M119.8,316.8c0.4-9.7,0.2-19.4-0.4-29c-1.3-19.9-4.6-39.7-9.1-59.2c-2.5-10.9-5.7-21.7-8.9-32.5
				c-0.1-0.3-0.6-0.2-0.5,0.1c10.1,37.9,18.3,77,17.8,116.4c-0.2,11-1.4,21.9-2.5,32.8c0,0.3,0.5,0.4,0.5,0.1
				C118.8,336.2,119.4,326.4,119.8,316.8z"/>
			<path fill="#EBEBEB" d="M100.9,196.2c0,0-15.2,38.7-11.8,47.8c3.4,9.1,10.5,11,10.5,11s-9.3,13.3-2.8,25.8
				c6.5,12.5,21,11.9,22,26.1C118.7,306.9,119.5,247.7,100.9,196.2z"/>
			<path fill="#FFFFFF" d="M117,282.5c0-0.1,0-0.1,0-0.2c-2.1-26.3-6.8-52.5-14.8-77.8c0-0.1-0.1-0.1-0.1,0c3,11.3,5.7,22.7,8,34.1
				c-2-2-4.6-3.2-7.3-4.1c-0.1,0-0.1,0.1,0,0.1c2.8,1.2,5.5,2.6,7.5,5c0.4,2.2,0.9,4.5,1.3,6.7c-3.4-3.8-8.1-5.7-12.9-7.5
				c-0.1,0-0.1,0.1,0,0.1c4.9,2,9.8,4.6,13.2,8.8c1.2,6.4,2.2,12.9,3.1,19.3c-2.5-2.6-5.6-4.4-9.1-5.2c-0.1,0-0.2,0.1-0.1,0.2
				c3.6,1,6.7,3.1,9.2,5.9c0,0,0,0,0.1,0c0.3,2.3,0.6,4.6,0.9,6.8c-1.9-1.6-4-2.9-6.4-3.8c-0.1,0-0.1,0.1,0,0.1
				c2.4,1,4.5,2.5,6.4,4.2c0,0,0.1,0,0.1,0c0.3,2.2,0.5,4.3,0.7,6.5c-3.5-4.2-7.8-7.3-12.9-9.2c-0.1,0-0.2,0.1-0.1,0.2
				c5,2.2,9.4,5.6,12.7,9.8c0.1,0.1,0.2,0.1,0.3,0.1c0.3,3.3,0.6,6.7,0.9,10c0,0,0.1,0.1,0.1,0C117.5,289.3,117.3,285.9,117,282.5z"
				/>
			<path fill="#FFFFFF" d="M104.8,230.7c-2.6-1.8-6-2.6-9.2-2.9c-0.1,0-0.1,0.1,0,0.1c3.3,0.5,6,1.7,9.1,3
				C104.8,231,104.9,230.8,104.8,230.7z"/>
			<path fill="#FFFFFF" d="M106.6,271.7c-2.1-1.3-4.5-2-6.9-2.4c-0.1,0-0.1,0.1,0,0.1c2.4,0.4,4.6,1.3,6.8,2.4
				C106.6,271.9,106.7,271.7,106.6,271.7z"/>
		</g>
		<g>
			<path fill="#EBEBEB" d="M159.9,244.7c-6.4,4.5-12.5,9.6-17.6,15.4c-5.5,6.2-9.6,13.2-12.4,21c-5.8,16-8.9,33.2-9.2,50.2
				c-0.2,9.5,0.7,18.9,2.7,28.2c0.1,0.3,0.6,0.2,0.5-0.1c-2.5-16.3-2.4-33,0.3-49.3c2.6-16,6.7-33.4,16.9-46.4
				c5.5-7.1,12.4-12.7,19.3-18.4C160.7,244.9,160.3,244.4,159.9,244.7z"/>
			<path fill="#EBEBEB" d="M122.9,319.7c0,0,5.2-8.8,12.9-16.4c7.6-7.6,14.1-13,15-18.1c1-5-7.6-8.8-7.6-8.8s10.6,1.9,13.4-2.5
				c2.9-4.4,4.3-30.1,4.3-30.1s-19.2,13.7-28.1,32.9C123.8,296,122.9,319.7,122.9,319.7z"/>
			<path fill="#FFFFFF" d="M154.2,250.4c-8.1,7.9-16.2,16.4-21,26.8c-1.6,3.6-3,7.3-4.2,11.1c0,0,0,0,0,0c-0.2,0.8-0.5,1.5-0.7,2.3
				c0,0,0,0.1,0,0.1c-2.4,7.8-4,15.8-5.5,23.7c0,0.1,0.1,0.1,0.1,0c0.8-4,1.7-8,2.8-12.1c0,0,0.1,0,0.1,0c1.6-0.7,3.3-1.1,5-1.3
				c0.1,0,0.1-0.2,0-0.2c-1.7,0.1-3.4,0.4-5,0.9c0.9-3.6,1.9-7.3,3.1-10.8c3.7-0.9,7.6-1.4,11.4-1.5c0,0,0-0.1,0-0.1
				c-3.8-0.2-7.5,0.2-11.2,1c0.2-0.6,0.4-1.2,0.6-1.8c2.5-0.6,5-1,7.6-1.3c0,0,0-0.1,0-0.1c-2.5,0.1-5,0.3-7.4,0.9
				c1-3.1,2.2-6.1,3.4-9.1c1-2.5,2.3-4.8,3.6-7c2.1-0.5,4-0.9,6.1-1.1c0.1,0,0.1-0.1,0-0.1c-1.9-0.1-3.9,0-5.7,0.6
				c1-1.6,2.1-3.2,3.2-4.8c0,0,0,0,0,0c4.3-1,8.7-1.8,13.1-1c0.1,0,0.1-0.1,0-0.1c-4.2-1.1-8.4-0.5-12.5,0.4
				c0.5-0.6,0.9-1.2,1.4-1.8c2.6-0.8,5.3-1.2,8-1.3c0.1,0,0.1-0.1,0-0.1c-2.5-0.2-5.1,0-7.5,0.7c3.6-4.4,7.5-8.6,11.4-12.7
				C154.6,250.3,154.4,250.2,154.2,250.4z"/>
			<path fill="#FFFFFF" d="M154,267.9c-1.3-0.1-2.5-0.3-3.8-0.1c-0.2,0-0.1,0.3,0,0.3c1.3,0,2.5-0.1,3.8,0
				C154.1,268.1,154.1,267.9,154,267.9z"/>
			<path fill="#FFFFFF" d="M140.2,292.8c-2,0-4,0.5-5.9,1.2c0,0,0,0.1,0,0.1c2-0.5,3.9-0.7,5.9-1
				C140.4,293.1,140.4,292.8,140.2,292.8z"/>
			<path fill="#FFFFFF" d="M136.1,284.2c-0.8,0-1.7,0.1-2.5,0.2c-0.1,0-0.1,0.1,0,0.1c0.8,0,1.7,0,2.5-0.1
				C136.2,284.4,136.2,284.2,136.1,284.2z"/>
		</g>
		<g>
			<path fill="#EBEBEB" d="M66.6,271.9c6.2,2.1,12.3,4.9,17.8,8.4c5.9,3.7,10.8,8.5,14.9,14.1c8.4,11.6,14.9,24.8,19.1,38.5
				c2.3,7.7,3.8,15.5,4.3,23.5c0,0.3-0.4,0.3-0.4,0c-1.8-13.8-5.7-27.3-11.6-39.9c-5.8-12.3-13.2-25.5-24.4-33.7
				c-6.1-4.5-13-7.4-19.9-10.4C66,272.3,66.3,271.8,66.6,271.9z"/>
			<path fill="#EBEBEB" d="M113.9,324.1c0,0-6.3-5.9-14.2-10.3c-7.9-4.4-14.4-7.3-16.4-11.2c-2-3.9,4.2-8.9,4.2-8.9s-8.1,4-11.5,1.1
				c-3.4-2.9-10.4-23.4-10.4-23.4s18.7,6.7,30.4,20.1C107.7,305.1,113.9,324.1,113.9,324.1z"/>
			<path fill="#FFFFFF" d="M112.9,319.9c-9.4-17.6-21.8-33.5-38.9-43.9c0,0,0,0,0,0c4.5,2.9,8.7,6.2,12.5,9.8
				c-3.5-0.1-7,0.5-10.1,2.1c-0.1,0,0,0.1,0.1,0.1c3.4-1.2,6.7-1.9,10.3-1.7c0.1,0,0.1,0,0.1,0c0.6,0.6,1.2,1.2,1.8,1.8
				c-1.8,0.1-3.6,0.3-5.4,0.7c0,0,0,0.1,0,0.1c1.9-0.4,3.8-0.5,5.7-0.5c3.1,3.1,6.1,6.5,8.8,10c-1.2-0.2-2.6-0.1-3.8,0.3
				c-0.1,0-0.1,0.2,0,0.1c1.4-0.2,2.7-0.1,4-0.1c0.5,0.7,1,1.3,1.5,2c-3.8-0.2-7.6,0.1-11.4,1.1c-0.1,0,0,0.1,0,0.1
				c3.9-0.8,7.7-1,11.7-0.8c0.5,0.6,0.9,1.3,1.4,1.9c-2.3-0.1-4.5,0.2-6.8,0.8c-0.1,0-0.1,0.2,0,0.1c2.3-0.5,4.6-0.7,7-0.5
				c2,2.8,3.9,5.6,5.8,8.5c-1-0.2-2-0.1-3,0.2c-0.1,0,0,0.1,0,0.1c1.1-0.1,2.1,0,3.2,0.2c1.7,2.6,3.3,5.2,4.8,7.8
				C112.7,320.3,113.1,320.1,112.9,319.9z"/>
			<path fill="#FFFFFF" d="M98.4,305.3c-1.8-0.2-3.7,0.1-5.4,0.7c0,0,0,0.1,0,0.1c1.8-0.3,3.6-0.5,5.4-0.6
				C98.5,305.5,98.5,305.3,98.4,305.3z"/>
			<path fill="#FFFFFF" d="M82.1,283.9c-0.8-0.1-1.7,0-2.5,0.1c-0.1,0-0.1,0.2,0,0.1c0.8-0.1,1.6-0.1,2.5-0.1
				C82.2,284.1,82.2,283.9,82.1,283.9z"/>
		</g>
		<g>
			<g>
				<polygon fill="#DBDBDB" points="138,382.2 95.8,382.2 101.8,338.1 103.4,326.8 130.5,326.8 132,338.1 				"/>
				<polygon fill="#C7C7C7" points="132,338.1 101.8,338.1 103.4,326.8 130.5,326.8 				"/>
			</g>
			<rect x="99.5" y="322.8" fill="#DBDBDB" width="34.9" height="9.6"/>
		</g>
	</g>
</g>
<g id="Floor">
	<polygon fill="#263238" points="69,382.2 145,381.9 221,381.8 373,381.7 525,381.8 601,381.9 677,382.2 601,382.4 525,382.5 
		373,382.7 221,382.5 145,382.4 	"/>
</g>
<g id="Shadow">
	<g>
		<ellipse fill="#EBEBEB" cx="335" cy="425.3" rx="286.7" ry="31.4"/>
	</g>
</g>
<g id="Folder">
	<g>
		<g>
			<g>
				<polygon fill="#FFC727" points="536.3,432.1 231.6,432.1 275.7,182.2 580.4,182.2 				"/>
				<polygon fill="#FFC727" points="380,156.3 280.3,156.3 275.7,182.2 382.4,182.2 				"/>
			</g>
			<g opacity="0.1">
				<polygon points="536.3,432.1 231.6,432.1 275.7,182.2 580.4,182.2 				"/>
				<polygon points="380,156.3 280.3,156.3 275.7,182.2 382.4,182.2 				"/>
			</g>
		</g>
		<polygon fill="#FFC727" points="535.9,432.1 230.5,432.1 187.2,191.3 492.5,191.3 		"/>
		<g>
			<circle fill="#263238" cx="293" cy="325.8" r="12.7"/>
			<circle fill="#263238" cx="393.3" cy="325.8" r="12.7"/>
			<path fill="#263238" d="M361.4,340.5l-0.7-1.3c-0.1-0.1-6.6-12.2-19.8-12.2c-12,0-15,11.4-15.1,11.9l-0.4,1.5l-2.9-0.7l0.3-1.5
				c0-0.1,3.6-14.2,18-14.2c15,0,22.2,13.3,22.5,13.8l0.7,1.3L361.4,340.5z"/>
		</g>
	</g>
</g>
<g id="Fly">
	<g>
		<g>
			<path fill="#263238" d="M555.7,324.8l-0.2-1c0.6-0.1,1.3-0.3,1.9-0.5l0.2,1C557,324.5,556.4,324.7,555.7,324.8z"/>
			<path fill="#263238" d="M561.6,323.2l-0.3-0.9c1.3-0.4,2.5-0.9,3.7-1.4l0.4,0.9C564.1,322.3,562.8,322.8,561.6,323.2z M569,320
				l-0.5-0.9c1.2-0.6,2.3-1.3,3.5-1.9l0.5,0.9C571.4,318.8,570.2,319.4,569,320z M575.9,315.8l-0.6-0.8c1.1-0.8,2.1-1.6,3.1-2.5
				l0.7,0.8C578,314.2,577,315,575.9,315.8z M582,310.5l-0.7-0.7c0.9-1,1.8-2,2.6-3l0.8,0.6C583.8,308.5,582.9,309.5,582,310.5z
				 M586.9,304.1l-0.9-0.5c0.7-1.1,1.3-2.3,1.8-3.5l0.9,0.4C588.3,301.7,587.6,302.9,586.9,304.1z M590.2,296.7l-1-0.3
				c0.4-1.3,0.6-2.6,0.8-3.8l1,0.1C590.9,294,590.6,295.4,590.2,296.7z M591.3,288.6l-1,0l0-0.3c0-1.2-0.1-2.4-0.2-3.7l1-0.1
				c0.1,1.2,0.2,2.5,0.2,3.8L591.3,288.6z M589.5,280.8c-0.3-1.3-0.6-2.5-1-3.8l1-0.3c0.4,1.3,0.8,2.6,1,3.9L589.5,280.8z
				 M587.2,273.3c-0.5-1.2-1-2.4-1.6-3.6l0.9-0.4c0.6,1.2,1.2,2.5,1.7,3.7L587.2,273.3z M583.7,266.1c-0.6-1.1-1.3-2.2-2-3.4
				l0.8-0.5c0.7,1.2,1.4,2.4,2.1,3.5L583.7,266.1z M579.5,259.4c-0.7-1.1-1.5-2.2-2.2-3.3l0.8-0.6c0.8,1.1,1.5,2.2,2.2,3.3
				L579.5,259.4z M575,252.7c-0.8-1.1-1.5-2.2-2.3-3.3l0.8-0.6c0.7,1.1,1.5,2.2,2.2,3.3L575,252.7z M570.5,246.1
				c-0.7-1.1-1.4-2.3-2.1-3.4l0.9-0.5c0.7,1.1,1.4,2.3,2.1,3.4L570.5,246.1z M566.4,239.2c-0.7-1.2-1.3-2.4-1.9-3.6l0.9-0.4
				c0.6,1.1,1.2,2.3,1.9,3.5L566.4,239.2z M562.8,232c-0.5-1.3-1-2.5-1.4-3.8l0.9-0.3c0.4,1.2,0.9,2.5,1.4,3.7L562.8,232z
				 M560.2,224.3c-0.3-1.3-0.6-2.6-0.8-3.9l1-0.2c0.2,1.3,0.5,2.6,0.8,3.9L560.2,224.3z M558.9,216.4c-0.1-1.2-0.1-2.5-0.1-3.7
				l0-0.3l1,0l0,0.3c0,1.2,0,2.4,0.1,3.6L558.9,216.4z M559.9,208.4l-1-0.1c0-0.3,0.1-0.6,0.1-0.8c0.1-1.1,0.3-2.1,0.4-3.2l1,0.2
				c-0.2,1-0.3,2-0.4,3.1C560,207.8,559.9,208.1,559.9,208.4z M561.3,200.6l-1-0.3c0.4-1.3,0.8-2.6,1.3-3.8l0.9,0.4
				C562.1,198.1,561.7,199.3,561.3,200.6z M611.1,194.8c-0.6,0-1.1-0.1-1.7-0.2c-0.8-0.1-1.6-0.2-2.3-0.4l0.2-1
				c0.7,0.1,1.5,0.3,2.3,0.4c0.5,0.1,1.1,0.1,1.6,0.2L611.1,194.8z M615.3,194.5l-0.2-1c1.3-0.3,2.5-0.7,3.6-1.4l0.5,0.9
				C618,193.7,616.7,194.2,615.3,194.5z M564.2,193.3l-0.9-0.5c0.6-1.2,1.3-2.4,2.1-3.5l0.8,0.6C565.5,191,564.8,192.1,564.2,193.3z
				 M603.2,193.2c-1.3-0.4-2.6-0.9-3.8-1.4l0.4-0.9c1.2,0.5,2.4,1,3.7,1.4L603.2,193.2z M622.2,190.1l-0.8-0.6
				c0.7-1.1,1.1-2.3,1.2-3.5l1,0.1C623.5,187.5,623,188.9,622.2,190.1z M595.8,190c-1.2-0.7-2.3-1.4-3.4-2.2l0.6-0.8
				c1.1,0.8,2.2,1.5,3.3,2.2L595.8,190z M568.7,186.8l-0.7-0.7c0.9-1,1.9-2,2.9-2.9l0.7,0.8C570.5,184.9,569.5,185.9,568.7,186.8z
				 M589.3,185.1c-1-0.9-1.9-1.9-2.8-2.9l0.8-0.7c0.9,1,1.8,1.9,2.7,2.8L589.3,185.1z M621.8,182.4c-0.5-1.1-1.3-2.1-2.3-3l0.7-0.7
				c1.1,1,2,2.1,2.6,3.3L621.8,182.4z M574.6,181.7l-0.6-0.8c1.1-0.8,2.3-1.5,3.5-2.1l0.5,0.9C576.8,180.2,575.7,180.9,574.6,181.7z
				 M583.9,179c-0.4-0.5-0.7-1.1-1.1-1.7c-0.4,0.2-0.9,0.3-1.3,0.5l-0.4-0.9c0.4-0.2,0.8-0.3,1.1-0.5c-0.2-0.3-0.4-0.6-0.5-0.9
				l0.9-0.5c0.2,0.3,0.4,0.7,0.6,1c0.6-0.2,1.1-0.4,1.7-0.6l0.3,1c-0.5,0.2-1,0.3-1.5,0.5c0.3,0.5,0.6,1,1,1.4L583.9,179z
				 M616.3,177.3c-0.9-0.5-1.9-0.9-3-1.2c-0.2-0.1-0.4-0.1-0.7-0.2l0.3-1c0.2,0.1,0.5,0.1,0.7,0.2c1.1,0.4,2.2,0.8,3.1,1.3
				L616.3,177.3z M589.1,175.5l-0.2-1c1.3-0.3,2.6-0.5,4-0.7l0.1,1C591.7,175,590.4,175.3,589.1,175.5z M608.8,175
				c-1.3-0.2-2.6-0.4-3.9-0.5l0.1-1c1.4,0.1,2.7,0.3,4,0.5L608.8,175z M596.9,174.4l-0.1-1c1.2-0.1,2.4-0.1,3.6-0.1c0,0,0,0,0,0
				l0.5,0l0,1l-0.5,0c0,0,0,0,0,0C599.3,174.3,598.1,174.3,596.9,174.4z M580,172c-0.5-1.2-1-2.5-1.4-3.8l0.9-0.3
				c0.4,1.3,0.9,2.5,1.4,3.7L580,172z M577.4,164.3c-0.3-1.3-0.5-2.6-0.7-4l1-0.1c0.2,1.3,0.4,2.6,0.7,3.9L577.4,164.3z
				 M576.3,156.3c0-0.9-0.1-1.8-0.1-2.7c0-0.4,0-0.9,0-1.3l1,0c0,0.4,0,0.9,0,1.3c0,0.9,0,1.8,0.1,2.7L576.3,156.3z M577.5,148.3
				l-1-0.1c0.1-1.3,0.3-2.7,0.6-4l1,0.2C577.8,145.7,577.6,147,577.5,148.3z M578.9,140.5l-1-0.2c0.3-1.3,0.7-2.6,1.1-3.9l1,0.3
				C579.6,138,579.2,139.3,578.9,140.5z M581.3,133l-0.9-0.4c0.5-1.3,1-2.5,1.6-3.7l0.9,0.4C582.3,130.5,581.8,131.7,581.3,133z
				 M584.7,125.8l-0.9-0.5c0.7-1.2,1.4-2.3,2.2-3.4l0.8,0.6C586.1,123.6,585.4,124.7,584.7,125.8z M589.2,119.3l-0.8-0.6
				c0.8-1,1.7-2.1,2.7-3l0.7,0.7C590.9,117.3,590.1,118.3,589.2,119.3z M594.7,113.6l-0.7-0.7c1-0.9,2-1.8,3.1-2.6l0.6,0.8
				C596.6,111.8,595.6,112.7,594.7,113.6z M600.9,108.6l-0.6-0.8c1.1-0.8,2.2-1.5,3.4-2.2l0.5,0.9
				C603.1,107.1,602,107.9,600.9,108.6z M607.7,104.5l-0.5-0.9c1.2-0.6,2.4-1.2,3.6-1.8l0.4,0.9C610,103.3,608.8,103.9,607.7,104.5z
				 M614.9,101.2l-0.4-0.9c1.3-0.5,2.5-1,3.8-1.4l0.3,0.9C617.4,100.2,616.1,100.7,614.9,101.2z"/>
			<path fill="#263238" d="M622.6,98.6l-0.3-1c1.2-0.3,1.9-0.5,2-0.5l0.2,1C624.5,98.2,623.8,98.3,622.6,98.6z"/>
		</g>
		<g>
			<path fill="#263238" d="M640.3,92.2c-2.6-7.9-19.6-5.1-16.3,5.3C627.4,107.8,642.9,100.1,640.3,92.2z"/>
			<g>
				<path fill="#EBEBEB" d="M614.7,89c0.1-3.5,4.9-6.1,11.8-4.9c6.8,1.2,13.2,5.8,13.2,5.8s-6.7,4.1-13.6,4.9
					C619.2,95.5,614.6,92.5,614.7,89z"/>
				<g>
					<path fill="#263238" d="M639.7,89.9c-3.5,0-7.1-0.1-10.6-0.2c-3.5-0.2-7.1-0.3-10.6-0.6c3.5,0,7.1,0.1,10.6,0.2
						C632.7,89.5,636.2,89.6,639.7,89.9z"/>
					<path fill="#263238" d="M621.6,85.9c1,0.5,2,1,2.9,1.6c0.9,0.6,1.9,1.2,2.7,1.9c-1-0.5-2-1-2.9-1.6
						C623.4,87.2,622.4,86.6,621.6,85.9z"/>
					<path fill="#263238" d="M630.8,89.6c-0.9,0.8-1.9,1.4-2.8,2c-1,0.6-2,1.2-3,1.7c0.9-0.8,1.9-1.4,2.8-2
						C628.8,90.7,629.8,90.1,630.8,89.6z"/>
					<path fill="#263238" d="M631.9,87.6c0.5,0.2,1,0.6,1.4,0.9c0.4,0.4,0.8,0.7,1.2,1.2c-0.5-0.2-1-0.6-1.4-0.9
						C632.6,88.4,632.2,88.1,631.9,87.6z"/>
				</g>
			</g>
			<g>
				<path fill="#EBEBEB" d="M621.2,109.5c2.1,2.7,7.6,2.1,12.4-2.9c4.8-5,7.3-12.5,7.3-12.5s-7.9,0.6-13.9,4
					C621.1,101.7,619.1,106.8,621.2,109.5z"/>
				<g>
					<path fill="#263238" d="M641,94.2c-2.9,2.1-5.7,4.2-8.5,6.4c-2.8,2.2-5.6,4.4-8.3,6.7c2.9-2,5.7-4.2,8.5-6.4
						C635.5,98.7,638.3,96.5,641,94.2z"/>
					<path fill="#263238" d="M628.6,108c0.6-1,1-2,1.4-3c0.4-1,0.8-2.1,1.1-3.2c-0.6,1-1,2-1.4,3C629.3,105.9,628.9,106.9,628.6,108
						z"/>
					<path fill="#263238" d="M634,99.6c-1.2-0.1-2.3,0-3.5,0c-1.2,0.1-2.3,0.2-3.5,0.4c1.2,0.1,2.3,0,3.5,0
						C631.6,99.9,632.8,99.9,634,99.6z"/>
					<path fill="#263238" d="M635.9,100.6c0.3-0.5,0.5-1,0.6-1.6c0.1-0.5,0.3-1.1,0.3-1.7c-0.3,0.5-0.5,1-0.6,1.6
						C636.1,99.5,635.9,100.1,635.9,100.6z"/>
				</g>
			</g>
			<path fill="#455A64" d="M640.3,92.2c-1.6,0.5-3.3-0.4-3.8-1.9c-0.5-1.6,0.4-3.3,1.9-3.8s3.3,0.4,3.8,1.9
				C642.8,90,641.9,91.7,640.3,92.2z"/>
			<path fill="#455A64" d="M642.2,97.9c-1.6,0.5-3.3-0.4-3.8-1.9c-0.5-1.6,0.4-3.3,1.9-3.8c1.6-0.5,3.3,0.4,3.8,1.9
				C644.6,95.7,643.7,97.4,642.2,97.9z"/>
		</g>
	</g>
</g>
</svg>
