<?xml version="1.0" encoding="utf-8"?>
<!-- Generator: Adobe Illustrator 22.0.1, SVG Export Plug-In . SVG Version: 6.00 Build 0)  -->
<svg version="1.1" id="Camada_1" xmlns="http://www.w3.org/2000/svg" xmlns:xlink="http://www.w3.org/1999/xlink" x="0px" y="0px"
	 viewBox="0 0 84.7 16" enable-background="new 0 0 84.7 16" xml:space="preserve">
<g>
	<g>
		<polygon fill="#FFFFFF" points="84.7,6.1 84.7,6.1 84.7,6.1 		"/>
	</g>
	<polygon fill="#FFFFFF" points="17,6.1 22.8,5.3 25.4,0 8.4,0 11,5.3 16.8,6.1 12.6,10.2 13.6,16 20.2,16 21.2,10.2 	"/>
	<polygon fill="#FFFFFF" points="80.5,10.2 81.5,16 84.7,16 84.7,6.1 	"/>
	<polygon fill="#FFFFFF" points="3.2,16 13.6,16 8.4,13.3 	"/>
	<polygon fill="#FFFFFF" points="33.9,6.1 39.8,5.3 42.4,0 25.4,0 28,5.3 33.8,6.1 29.6,10.2 30.6,16 37.2,16 38.1,10.2 	"/>
	<polygon fill="#FFFFFF" points="84.7,6.1 84.7,0 76.3,0 78.9,5.3 	"/>
	<polygon fill="#FFFFFF" points="8.4,0 0,0 0,6.1 5.8,5.3 	"/>
	<polygon fill="#FFFFFF" points="0,6.1 0,16 3.2,16 4.2,10.2 	"/>
	<polygon fill="#FFFFFF" points="20.2,16 30.6,16 25.4,13.3 	"/>
	<polygon fill="#FFFFFF" points="67.9,6.1 73.7,5.3 76.3,0 59.3,0 61.9,5.3 67.7,6.1 63.5,10.2 64.5,16 71.1,16 72.1,10.2 	"/>
	<polygon fill="#FFFFFF" points="37.2,16 47.6,16 42.4,13.3 	"/>
	<polygon fill="#FFFFFF" points="71.1,16 81.5,16 76.3,13.3 	"/>
	<polygon fill="#FFFFFF" points="54.1,16 64.5,16 59.3,13.3 	"/>
	<polygon fill="#FFFFFF" points="50.9,6.1 56.7,5.3 59.3,0 42.4,0 45,5.3 50.8,6.1 46.6,10.2 47.6,16 54.1,16 55.1,10.2 	"/>
</g>
</svg>
