<?xml version="1.0" encoding="utf-8"?>
<!-- Generator: Adobe Illustrator 22.0.1, SVG Export Plug-In . SVG Version: 6.00 Build 0)  -->
<svg version="1.1" xmlns="http://www.w3.org/2000/svg" xmlns:xlink="http://www.w3.org/1999/xlink" x="0px" y="0px"
	 viewBox="0 0 300 128.8" enable-background="new 0 0 300 128.8" xml:space="preserve">
<g id="BACKGROUND">
</g>
<g id="OBJECTS">
	<g>
		<g>
			<path fill="#FFFFFF" d="M160.1,40l85.8-23.4c0.9-0.2,1.5-1,1.5-1.9V2c0-1.4-1.5-2.4-2.8-1.8L159.1,39
				C159.5,39.3,159.8,39.6,160.1,40z"/>
			<path fill="#FFFFFF" d="M279.1,18.8L173.5,39.3c0.2,1.3,0.1,0.8,0.3,2.1l105.5-5.4c0.5,0,0.8-0.4,0.8-0.9V19.6
				C280.1,19.1,279.6,18.7,279.1,18.8z"/>
			<path fill="#FFFFFF" d="M140.9,39L55.4,0.2c-1.3-0.6-2.8,0.4-2.8,1.8v12.7c0,0.9,0.6,1.7,1.4,1.9L139.9,40
				C140.2,39.6,140.5,39.3,140.9,39z"/>
			<path fill="#FFFFFF" d="M285.7,65.1c-0.5-0.3-0.7-0.8-0.7-1.4V52.6v-2.7v-1.1c0-0.9-0.8-1.7-1.7-1.7H164.1v1.5
				c0,0.4,0.1,0.9,0.1,1.3c0,7.8-6.3,14.2-14.2,14.2c-7.8,0-14.2-6.3-14.2-14.2c0-0.4,0-0.9,0.1-1.3v-1.5H16.8
				c-0.9,0-1.7,0.8-1.7,1.7v1.1v2.7v11.1c0,0.6-0.3,1.1-0.7,1.4L0.8,74.4c-1.4,0.9-0.7,3.1,1,3.1h13.4h269.9h13.4
				c1.7,0,2.4-2.2,1-3.1L285.7,65.1z"/>
			<path fill="#FFFFFF" d="M126.3,39.2L20.9,18.8c-0.5-0.1-1,0.3-1,0.8v15.4c0,0.5,0.4,0.8,0.8,0.9l105.4,5.4
				C126.2,40,126.2,40.5,126.3,39.2z"/>
		</g>
		<g>
			<path fill="#FFFFFF" d="M65.7,99.1c0.7,0.7,1,1.6,1,2.8v23.3c0,1.1-0.3,1.9-0.9,2.6c-0.6,0.6-1.5,0.9-2.5,0.9
				c-1,0-1.8-0.3-2.5-0.9c-0.6-0.6-1-1.5-1-2.6v-12.6l-4.9,9c-0.5,0.9-1,1.6-1.5,1.9c-0.5,0.4-1.2,0.6-1.9,0.6
				c-0.7,0-1.4-0.2-1.9-0.6c-0.5-0.4-1.1-1-1.5-1.9l-4.8-8.7v12.3c0,1.1-0.3,1.9-1,2.5c-0.6,0.6-1.5,1-2.5,1c-1,0-1.8-0.3-2.5-0.9
				c-0.6-0.6-1-1.5-1-2.6v-23.3c0-1.1,0.3-2.1,1-2.8c0.7-0.7,1.6-1.1,2.7-1.1c0.8,0,1.5,0.2,2.1,0.7c0.6,0.4,1.2,1.1,1.6,1.9
				l7.9,14.8l7.8-14.8c0.9-1.7,2.1-2.6,3.6-2.6C64.1,98.1,65,98.4,65.7,99.1z"/>
			<path fill="#FFFFFF" d="M98.1,98c0.9,0,1.8,0.4,2.5,1.1c0.8,0.7,1.1,1.6,1.1,2.5c0,0.8-0.3,1.6-0.9,2.4l-9,10.4v10.4
				c0,1.3-0.4,2.2-1.1,2.9c-0.7,0.7-1.7,1-2.8,1c-1.2,0-2.1-0.3-2.9-1c-0.7-0.7-1.1-1.6-1.1-2.9v-10.4L75.1,104
				c-0.7-0.7-1-1.5-1-2.4c0-0.9,0.4-1.8,1.1-2.5c0.7-0.7,1.6-1.1,2.5-1.1c1,0,1.9,0.4,2.6,1.3l7.6,9l7.6-9
				C96.2,98.4,97.1,98,98.1,98z"/>
			<path fill="#FFFFFF" d="M133,127.6c0,0.3-0.1,0.6-0.4,0.8c-0.2,0.2-0.5,0.3-0.8,0.3c-0.5,0-0.9-0.2-1.2-0.7l-5.8-9.2
				c-0.8-1.3-1.7-2.2-2.5-2.7c-0.9-0.5-2.1-0.7-3.6-0.7h-5.9v11.9c0,0.4-0.1,0.8-0.4,1c-0.2,0.2-0.6,0.4-1,0.4c-0.4,0-0.7-0.1-1-0.4
				c-0.2-0.2-0.4-0.6-0.4-1V99.6c0-0.4,0.1-0.7,0.4-0.9c0.3-0.3,0.6-0.4,1-0.4h10.7c3.2,0,5.6,0.7,7.3,2.2c1.7,1.4,2.6,3.5,2.6,6.3
				c0,2.4-0.7,4.3-2.2,5.8c-1.5,1.4-3.5,2.3-6.2,2.5c0.7,0.2,1.3,0.6,1.9,1.1c0.6,0.5,1.2,1.3,1.8,2.2l5.3,8.5
				C132.9,127.1,133,127.4,133,127.6z M122.1,113.1c5,0,7.4-2.1,7.4-6.4c0-2.1-0.6-3.6-1.8-4.6c-1.2-1-3.1-1.5-5.6-1.5h-9.3v12.5
				H122.1z"/>
			<path fill="#FFFFFF" d="M144.3,128.1c-0.3-0.3-0.4-0.6-0.4-0.9V99.6c0-0.4,0.1-0.7,0.4-0.9c0.3-0.3,0.6-0.4,1-0.4h16.3
				c0.4,0,0.7,0.1,0.9,0.3c0.2,0.2,0.3,0.5,0.3,0.9c0,0.3-0.1,0.6-0.3,0.8c-0.2,0.2-0.5,0.3-0.9,0.3h-15.1V112h14.2
				c0.4,0,0.7,0.1,0.9,0.3c0.2,0.2,0.3,0.5,0.3,0.9s-0.1,0.7-0.3,0.9c-0.2,0.2-0.5,0.3-0.9,0.3h-14.2v11.9h15.1
				c0.4,0,0.7,0.1,0.9,0.3c0.2,0.2,0.3,0.5,0.3,0.8c0,0.4-0.1,0.7-0.3,0.9c-0.2,0.2-0.5,0.3-0.9,0.3h-16.3
				C144.9,128.4,144.6,128.3,144.3,128.1z"/>
			<path fill="#FFFFFF" d="M198.1,127.5c0,0.3-0.1,0.6-0.4,0.8c-0.3,0.2-0.6,0.3-0.9,0.3c-0.2,0-0.5-0.1-0.7-0.2
				c-0.2-0.1-0.4-0.3-0.5-0.6l-3.3-7.4h-16.6l-3.3,7.4c-0.3,0.5-0.7,0.8-1.2,0.8c-0.3,0-0.6-0.1-0.9-0.3c-0.2-0.2-0.4-0.5-0.4-0.8
				c0-0.2,0-0.4,0.1-0.5L182.6,99c0.3-0.6,0.7-0.9,1.4-0.9c0.3,0,0.6,0.1,0.9,0.3c0.3,0.2,0.5,0.4,0.6,0.7l12.5,28.1
				C198,127.2,198.1,127.4,198.1,127.5z M176.8,118.1h14.6l-7.3-16.6L176.8,118.1z"/>
			<path fill="#FFFFFF" d="M208.2,128.1c-0.3-0.3-0.4-0.6-0.4-0.9V99.6c0-0.4,0.1-0.7,0.4-0.9c0.3-0.3,0.6-0.4,1-0.4h8.3
				c4.8,0,8.5,1.3,11.1,3.9c2.6,2.6,3.9,6.3,3.9,11.2c0,4.9-1.3,8.6-3.9,11.2s-6.3,3.9-11.1,3.9h-8.3
				C208.8,128.4,208.5,128.3,208.2,128.1z M217.4,126.1c8.2,0,12.3-4.3,12.3-12.8c0-8.5-4.1-12.8-12.3-12.8h-6.9v25.5H217.4z"/>
			<path fill="#FFFFFF" d="M246.8,127.8c-2-0.7-3.5-1.6-4.6-2.7c-0.4-0.3-0.6-0.7-0.6-1.2c0-0.3,0.1-0.6,0.3-0.8
				c0.2-0.2,0.4-0.3,0.6-0.3c0.3,0,0.6,0.1,1,0.4c2.7,2.2,5.8,3.3,9.4,3.3c2.6,0,4.6-0.5,6-1.6c1.4-1,2.1-2.5,2.1-4.4
				c0-1.1-0.3-2-1-2.7c-0.7-0.7-1.6-1.2-2.6-1.6c-1.1-0.4-2.5-0.8-4.2-1.2c-2.3-0.5-4.2-1-5.7-1.6c-1.4-0.5-2.7-1.4-3.7-2.5
				c-1-1.1-1.5-2.6-1.5-4.4c0-1.7,0.4-3.2,1.3-4.5c0.9-1.3,2.2-2.3,3.8-3c1.6-0.7,3.5-1.1,5.6-1.1c2,0,3.8,0.3,5.6,1
				c1.7,0.6,3.2,1.6,4.3,2.8c0.4,0.4,0.6,0.8,0.6,1.2c0,0.3-0.1,0.6-0.3,0.8c-0.2,0.2-0.4,0.3-0.6,0.3c-0.3,0-0.6-0.1-1-0.4
				c-1.5-1.3-2.9-2.1-4.2-2.6c-1.2-0.5-2.7-0.7-4.4-0.7c-2.5,0-4.5,0.5-5.9,1.6s-2.1,2.6-2.1,4.5c0,1.2,0.3,2.1,0.9,2.8
				c0.6,0.7,1.4,1.3,2.5,1.7c1,0.4,2.3,0.8,3.9,1.2l1.1,0.3c2.3,0.6,4.1,1.1,5.5,1.6c1.3,0.5,2.5,1.2,3.4,2.2c0.9,1,1.4,2.4,1.4,4.1
				c0,1.6-0.5,3.1-1.3,4.3c-0.9,1.3-2.2,2.3-3.8,3c-1.6,0.7-3.5,1-5.6,1C250.8,128.8,248.7,128.4,246.8,127.8z"/>
		</g>
	</g>
</g>
<g id="DESIGNED_BY_FREEPIK">
</g>
</svg>
